<svg id="svg" version="1.1" xmlns="http://www.w3.org/2000/svg" xmlns:xlink="http://www.w3.org/1999/xlink" width="400" height="67.46666666666667" viewBox="0, 0, 400,67.46666666666667"><g id="svgg"><path id="path0" d="M141.421 5.114 C 140.965 5.155,140.515 5.249,140.421 5.324 C 140.327 5.398,139.745 5.512,139.127 5.576 C 138.509 5.640,137.961 5.762,137.909 5.846 C 137.856 5.931,137.631 6.000,137.407 6.000 C 137.183 6.000,137.000 6.068,137.000 6.151 C 137.000 6.234,136.625 6.354,136.167 6.417 C 135.708 6.480,135.333 6.593,135.333 6.669 C 135.333 6.745,135.109 6.856,134.835 6.916 C 134.561 6.976,134.294 7.095,134.242 7.179 C 134.190 7.264,134.001 7.333,133.823 7.333 C 133.646 7.333,133.500 7.408,133.500 7.500 C 133.500 7.592,133.393 7.667,133.262 7.667 C 133.131 7.667,132.924 7.760,132.801 7.875 C 132.678 7.990,132.298 8.226,131.956 8.401 C 131.613 8.576,131.333 8.777,131.333 8.848 C 131.333 8.919,131.170 9.029,130.971 9.092 C 130.534 9.231,127.886 11.906,127.744 12.351 C 127.689 12.525,127.574 12.667,127.489 12.667 C 127.403 12.667,127.333 12.779,127.333 12.917 C 127.333 13.054,127.260 13.167,127.170 13.167 C 127.080 13.167,126.959 13.354,126.902 13.583 C 126.844 13.813,126.731 14.000,126.651 14.000 C 126.570 14.000,126.456 14.300,126.397 14.667 C 126.339 15.033,126.237 15.333,126.171 15.333 C 125.986 15.333,125.500 16.970,125.500 17.593 C 125.500 17.898,125.425 18.193,125.333 18.250 C 125.127 18.377,125.104 24.333,125.310 24.333 C 125.388 24.333,125.501 24.802,125.561 25.375 C 125.621 25.948,125.744 26.442,125.835 26.472 C 125.926 26.503,126.000 26.709,126.000 26.931 C 126.000 27.152,126.075 27.333,126.167 27.333 C 126.258 27.333,126.333 27.419,126.333 27.523 C 126.333 27.776,127.049 29.235,127.208 29.306 C 127.277 29.336,127.333 29.449,127.333 29.557 C 127.333 29.665,127.521 29.956,127.750 30.203 C 127.979 30.450,128.168 30.712,128.170 30.784 C 128.174 30.952,130.588 33.333,130.754 33.333 C 130.822 33.333,130.999 33.467,131.147 33.630 C 131.881 34.436,136.375 36.989,137.542 37.262 C 137.794 37.321,138.000 37.424,138.000 37.491 C 138.000 37.558,138.412 37.753,138.917 37.924 C 139.421 38.095,139.833 38.295,139.833 38.368 C 139.833 38.441,139.965 38.502,140.125 38.504 C 140.285 38.506,140.867 38.729,141.417 39.000 C 141.967 39.271,142.510 39.494,142.625 39.496 C 142.740 39.498,142.833 39.575,142.833 39.667 C 142.833 39.758,142.919 39.833,143.025 39.833 C 143.279 39.833,145.353 40.860,145.635 41.125 C 145.757 41.240,145.920 41.333,145.998 41.333 C 146.373 41.333,148.928 43.842,149.094 44.372 C 149.159 44.580,149.291 44.801,149.388 44.863 C 149.637 45.023,149.638 47.812,149.388 47.966 C 149.281 48.032,149.143 48.288,149.081 48.533 C 149.019 48.778,148.669 49.228,148.303 49.531 C 147.937 49.835,147.540 50.173,147.422 50.283 C 147.304 50.393,147.010 50.533,146.770 50.593 C 146.530 50.653,146.333 50.763,146.333 50.837 C 146.333 50.910,146.033 51.021,145.667 51.083 C 145.300 51.145,145.000 51.264,145.000 51.348 C 145.000 51.432,144.700 51.500,144.333 51.500 C 143.967 51.500,143.667 51.575,143.667 51.667 C 143.667 51.772,142.528 51.833,140.583 51.833 C 138.869 51.833,137.500 51.767,137.500 51.683 C 137.500 51.601,137.181 51.493,136.792 51.443 C 135.458 51.271,134.000 50.937,134.000 50.802 C 134.000 50.727,133.831 50.666,133.625 50.666 C 133.419 50.665,133.035 50.553,132.773 50.416 C 132.510 50.279,132.191 50.167,132.064 50.167 C 131.937 50.167,131.833 50.092,131.833 50.000 C 131.833 49.908,131.740 49.831,131.625 49.828 C 131.510 49.825,131.117 49.677,130.750 49.500 C 130.383 49.323,129.990 49.175,129.875 49.172 C 129.760 49.169,129.667 49.092,129.667 49.000 C 129.667 48.908,129.554 48.833,129.417 48.833 C 129.279 48.833,129.167 48.760,129.167 48.670 C 129.167 48.580,128.979 48.459,128.750 48.402 C 128.521 48.344,128.333 48.230,128.333 48.149 C 128.333 48.067,128.225 48.000,128.092 48.000 C 127.959 48.000,127.790 47.904,127.717 47.788 C 127.643 47.671,127.358 47.432,127.083 47.257 C 126.808 47.082,126.484 46.840,126.363 46.719 C 125.520 45.879,125.500 46.017,125.500 52.806 L 125.500 59.113 126.417 59.424 C 126.921 59.595,127.333 59.795,127.333 59.868 C 127.333 59.941,127.521 60.000,127.750 60.000 C 127.979 60.000,128.167 60.070,128.167 60.155 C 128.167 60.240,128.579 60.361,129.083 60.424 C 129.587 60.487,130.000 60.599,130.000 60.673 C 130.000 60.746,130.487 60.859,131.083 60.923 C 131.679 60.987,132.167 61.105,132.167 61.186 C 132.167 61.267,132.489 61.333,132.883 61.333 C 133.278 61.333,133.694 61.427,133.808 61.542 C 133.968 61.702,135.619 61.750,140.917 61.750 C 146.214 61.750,147.865 61.702,148.025 61.542 C 148.140 61.427,148.514 61.333,148.857 61.333 C 149.200 61.333,149.521 61.268,149.570 61.189 C 149.619 61.109,150.111 60.993,150.663 60.930 C 151.215 60.868,151.667 60.754,151.667 60.677 C 151.667 60.601,152.004 60.487,152.417 60.425 C 152.829 60.364,153.167 60.243,153.167 60.156 C 153.167 60.070,153.354 60.000,153.583 60.000 C 153.813 60.000,154.000 59.931,154.000 59.847 C 154.000 59.762,154.225 59.644,154.500 59.583 C 154.775 59.523,155.000 59.404,155.000 59.320 C 155.000 59.236,155.121 59.167,155.268 59.167 C 155.586 59.167,157.167 58.172,157.167 57.972 C 157.167 57.896,157.279 57.833,157.417 57.833 C 157.720 57.833,160.333 55.253,160.333 54.953 C 160.333 54.836,160.483 54.632,160.667 54.500 C 160.850 54.368,161.000 54.173,161.000 54.067 C 161.000 53.961,161.108 53.785,161.239 53.676 C 161.371 53.566,161.527 53.257,161.586 52.988 C 161.645 52.720,161.762 52.500,161.847 52.500 C 161.931 52.500,162.000 52.354,162.000 52.177 C 162.000 51.999,162.068 51.811,162.152 51.759 C 162.236 51.707,162.358 51.347,162.423 50.957 C 162.488 50.568,162.625 50.196,162.729 50.131 C 162.989 49.966,162.994 41.038,162.734 40.869 C 162.634 40.804,162.504 40.451,162.446 40.085 C 162.389 39.719,162.264 39.394,162.171 39.362 C 162.077 39.331,162.000 39.131,162.000 38.917 C 162.000 38.703,161.944 38.503,161.875 38.472 C 161.806 38.442,161.563 38.058,161.334 37.619 C 161.105 37.181,160.748 36.625,160.542 36.385 C 160.336 36.145,160.167 35.901,160.167 35.843 C 160.167 35.589,158.463 33.965,157.010 32.833 C 156.716 32.604,156.319 32.285,156.128 32.125 C 155.938 31.965,155.681 31.833,155.558 31.833 C 155.434 31.833,155.333 31.758,155.333 31.667 C 155.333 31.575,155.226 31.500,155.095 31.500 C 154.964 31.500,154.758 31.406,154.637 31.291 C 154.516 31.176,154.117 30.933,153.750 30.750 C 153.383 30.566,153.058 30.360,153.028 30.292 C 152.997 30.223,152.859 30.167,152.720 30.167 C 152.437 30.167,151.447 29.651,151.361 29.458 C 151.331 29.390,151.233 29.333,151.144 29.333 C 151.055 29.333,150.630 29.179,150.199 28.991 C 149.198 28.553,148.705 28.339,148.083 28.072 C 147.808 27.954,147.309 27.740,146.975 27.596 C 146.640 27.451,146.284 27.333,146.183 27.333 C 146.082 27.333,146.000 27.275,146.000 27.203 C 146.000 27.132,145.625 26.928,145.167 26.750 C 144.708 26.572,144.333 26.374,144.333 26.310 C 144.333 26.246,144.108 26.144,143.833 26.083 C 143.558 26.023,143.333 25.913,143.333 25.838 C 143.333 25.764,143.146 25.656,142.917 25.598 C 142.688 25.541,142.500 25.420,142.500 25.330 C 142.500 25.240,142.387 25.167,142.250 25.167 C 142.112 25.167,142.000 25.097,142.000 25.011 C 142.000 24.926,141.846 24.807,141.658 24.747 C 140.740 24.456,138.833 22.050,138.833 21.183 C 138.833 20.991,138.758 20.833,138.667 20.833 C 138.575 20.833,138.500 20.608,138.500 20.333 C 138.500 20.058,138.565 19.833,138.644 19.833 C 138.723 19.833,138.833 19.504,138.888 19.101 C 138.970 18.508,139.145 18.216,139.818 17.560 C 140.941 16.462,141.072 16.363,141.569 16.239 C 141.806 16.179,142.000 16.064,142.000 15.982 C 142.000 15.900,142.135 15.833,142.300 15.833 C 142.465 15.833,142.677 15.756,142.771 15.662 C 142.865 15.568,143.330 15.445,143.804 15.389 C 144.279 15.333,144.667 15.222,144.667 15.143 C 144.667 15.065,146.054 15.000,147.750 15.000 C 149.446 15.000,150.833 15.065,150.833 15.145 C 150.833 15.225,151.433 15.343,152.167 15.407 C 152.900 15.471,153.500 15.593,153.500 15.678 C 153.500 15.763,153.725 15.833,154.000 15.833 C 154.275 15.833,154.500 15.901,154.500 15.984 C 154.500 16.067,154.875 16.187,155.333 16.250 C 155.792 16.313,156.167 16.432,156.167 16.514 C 156.167 16.596,156.467 16.711,156.833 16.769 C 157.200 16.828,157.500 16.941,157.500 17.021 C 157.500 17.101,157.612 17.167,157.750 17.167 C 157.887 17.167,158.000 17.236,158.000 17.320 C 158.000 17.404,158.225 17.523,158.500 17.583 C 158.775 17.644,159.000 17.757,159.000 17.835 C 159.000 17.914,159.169 18.030,159.375 18.095 C 159.581 18.159,159.787 18.269,159.833 18.339 C 159.879 18.409,160.067 18.493,160.250 18.525 C 160.577 18.582,160.584 18.480,160.627 12.708 C 160.666 7.556,160.640 6.833,160.419 6.833 C 160.280 6.833,160.167 6.765,160.167 6.682 C 160.167 6.599,159.792 6.480,159.333 6.417 C 158.875 6.354,158.500 6.234,158.500 6.151 C 158.500 6.068,158.290 6.000,158.033 6.000 C 157.777 6.000,157.495 5.929,157.408 5.842 C 157.321 5.755,156.725 5.632,156.083 5.567 C 155.442 5.503,154.865 5.371,154.802 5.273 C 154.686 5.094,143.178 4.958,141.421 5.114 M51.509 6.125 C 51.522 6.328,51.347 19.896,51.301 22.167 C 51.272 23.629,51.232 23.057,51.167 20.250 C 51.116 18.050,51.058 26.281,51.037 38.542 L 51.000 60.833 57.583 60.833 L 64.167 60.833 64.167 38.585 L 64.167 16.337 71.875 16.293 L 79.583 16.250 79.627 11.125 L 79.671 6.000 65.586 6.000 C 57.839 6.000,51.504 6.056,51.509 6.125 M86.333 33.500 L 86.333 61.000 92.667 61.000 L 99.000 61.000 99.018 49.708 C 99.027 43.498,99.023 38.218,99.007 37.975 C 98.973 37.450,99.252 37.225,99.591 37.506 C 99.888 37.753,99.908 38.275,99.625 38.390 C 99.510 38.437,103.354 38.462,108.167 38.446 L 116.917 38.417 116.917 33.250 L 116.917 28.083 107.958 28.040 L 99.000 27.997 99.000 22.167 L 99.000 16.336 108.625 16.293 L 118.250 16.250 118.296 13.958 C 118.336 11.993,118.306 11.667,118.088 11.667 C 117.870 11.667,117.833 11.264,117.833 8.833 L 117.833 6.000 102.083 6.000 L 86.333 6.000 86.333 33.500 M166.500 11.167 L 166.500 16.333 174.250 16.333 L 182.000 16.333 182.000 30.417 L 182.000 44.500 188.500 44.500 L 195.000 44.500 195.000 30.417 L 195.000 16.333 202.792 16.320 C 207.077 16.313,210.490 16.269,210.375 16.223 C 210.215 16.158,210.167 14.969,210.167 11.069 L 210.167 6.000 188.333 6.000 L 166.500 6.000 166.500 11.167 M238.833 33.417 L 238.833 60.833 244.689 60.833 L 250.545 60.833 250.468 40.496 C 250.411 25.227,250.343 20.110,250.196 19.963 C 249.968 19.735,249.929 18.500,250.149 18.500 C 250.231 18.500,250.352 19.100,250.417 19.833 C 250.482 20.567,250.595 21.167,250.668 21.167 C 250.741 21.167,250.853 21.617,250.917 22.167 C 250.981 22.717,251.100 23.209,251.183 23.260 C 251.266 23.311,251.333 23.490,251.333 23.657 C 251.333 23.825,251.445 24.177,251.582 24.439 C 251.719 24.702,251.832 25.085,251.832 25.292 C 251.833 25.498,251.900 25.667,251.981 25.667 C 252.062 25.667,252.179 26.002,252.241 26.413 C 252.302 26.823,252.423 27.203,252.510 27.256 C 252.596 27.309,252.667 27.499,252.667 27.677 C 252.667 27.854,252.732 28.000,252.812 28.000 C 252.892 28.000,253.005 28.300,253.064 28.667 C 253.123 29.033,253.236 29.333,253.316 29.333 C 253.397 29.333,253.513 29.669,253.574 30.079 C 253.636 30.490,253.757 30.869,253.843 30.923 C 253.929 30.976,254.000 31.203,254.000 31.427 C 254.000 31.650,254.068 31.833,254.152 31.833 C 254.236 31.833,254.355 32.133,254.417 32.500 C 254.479 32.867,254.589 33.167,254.662 33.167 C 254.736 33.167,254.846 33.504,254.908 33.917 C 254.970 34.329,255.091 34.667,255.177 34.667 C 255.263 34.667,255.333 34.854,255.333 35.083 C 255.333 35.313,255.408 35.500,255.500 35.500 C 255.592 35.500,255.667 35.669,255.668 35.875 C 255.668 36.081,255.774 36.451,255.902 36.697 C 256.030 36.943,256.189 37.391,256.255 37.692 C 256.322 37.993,256.441 38.373,256.521 38.536 C 256.601 38.700,256.732 38.967,256.812 39.130 C 256.892 39.294,257.012 39.674,257.078 39.975 C 257.144 40.276,257.303 40.724,257.431 40.970 C 257.560 41.215,257.665 41.585,257.666 41.792 C 257.666 41.998,257.742 42.167,257.833 42.167 C 257.925 42.167,258.000 42.354,258.000 42.583 C 258.000 42.813,258.066 43.000,258.148 43.000 C 258.229 43.000,258.346 43.337,258.408 43.750 C 258.470 44.163,258.581 44.500,258.656 44.500 C 258.730 44.500,258.839 44.800,258.897 45.167 C 258.956 45.533,259.078 45.833,259.169 45.833 C 259.259 45.833,259.333 46.021,259.333 46.250 C 259.333 46.479,259.400 46.667,259.481 46.667 C 259.562 46.667,259.679 47.002,259.741 47.413 C 259.802 47.823,259.917 48.199,259.995 48.247 C 260.074 48.295,260.188 48.635,260.250 49.001 C 260.312 49.367,260.431 49.667,260.515 49.667 C 260.598 49.667,260.667 49.854,260.667 50.083 C 260.667 50.313,260.737 50.500,260.823 50.500 C 260.909 50.500,261.030 50.838,261.092 51.250 C 261.154 51.663,261.271 52.000,261.352 52.000 C 261.434 52.000,261.500 52.169,261.501 52.375 C 261.502 52.581,261.614 52.965,261.751 53.227 C 261.888 53.490,262.000 53.809,262.000 53.936 C 262.000 54.063,262.065 54.167,262.145 54.167 C 262.225 54.167,262.341 54.482,262.403 54.867 C 262.464 55.252,262.573 55.646,262.643 55.742 C 262.714 55.838,262.917 56.385,263.094 56.958 C 263.272 57.531,263.468 58.000,263.531 58.000 C 263.595 58.000,263.697 58.338,263.759 58.750 C 263.821 59.163,263.928 59.500,263.998 59.500 C 264.067 59.500,264.172 59.801,264.231 60.169 L 264.338 60.838 269.709 60.794 L 275.080 60.750 275.368 60.167 C 275.526 59.846,275.705 59.302,275.766 58.958 C 275.826 58.615,275.937 58.333,276.011 58.333 C 276.085 58.333,276.197 57.996,276.259 57.583 C 276.321 57.171,276.438 56.833,276.519 56.833 C 276.600 56.833,276.667 56.646,276.667 56.417 C 276.667 56.188,276.733 56.000,276.814 56.000 C 276.896 56.000,277.013 55.664,277.074 55.254 C 277.136 54.844,277.248 54.469,277.324 54.422 C 277.400 54.375,277.513 54.064,277.576 53.731 C 277.638 53.398,277.753 53.004,277.831 52.854 C 278.212 52.123,278.500 51.331,278.500 51.016 C 278.500 50.824,278.565 50.667,278.645 50.667 C 278.725 50.667,278.839 50.363,278.898 49.993 C 278.958 49.622,279.080 49.172,279.170 48.993 C 279.260 48.813,279.407 48.520,279.497 48.341 C 279.587 48.161,279.709 47.711,279.768 47.341 C 279.827 46.970,279.933 46.667,280.002 46.667 C 280.072 46.667,280.179 46.329,280.241 45.917 C 280.303 45.504,280.424 45.167,280.510 45.167 C 280.596 45.167,280.667 45.021,280.667 44.843 C 280.667 44.665,280.735 44.477,280.819 44.426 C 280.903 44.374,281.022 44.032,281.083 43.667 C 281.145 43.301,281.260 42.962,281.338 42.914 C 281.417 42.865,281.531 42.490,281.593 42.079 C 281.654 41.669,281.771 41.333,281.852 41.333 C 281.934 41.333,282.000 41.146,282.000 40.917 C 282.000 40.688,282.070 40.500,282.156 40.500 C 282.243 40.500,282.364 40.162,282.425 39.750 C 282.487 39.337,282.596 39.000,282.667 39.000 C 282.738 39.000,282.849 38.644,282.914 38.208 C 282.979 37.773,283.087 37.379,283.153 37.333 C 283.338 37.205,283.833 35.867,283.833 35.497 C 283.833 35.315,283.904 35.167,283.990 35.167 C 284.076 35.167,284.197 34.829,284.259 34.417 C 284.321 34.004,284.438 33.667,284.519 33.667 C 284.600 33.667,284.667 33.479,284.667 33.250 C 284.667 33.021,284.733 32.833,284.814 32.833 C 284.896 32.833,285.013 32.496,285.075 32.083 C 285.136 31.671,285.250 31.333,285.328 31.333 C 285.405 31.333,285.520 30.958,285.583 30.500 C 285.646 30.042,285.766 29.667,285.849 29.667 C 285.932 29.667,286.000 29.563,286.000 29.436 C 286.000 29.309,286.112 28.990,286.249 28.727 C 286.386 28.465,286.498 28.081,286.499 27.875 C 286.500 27.669,286.566 27.500,286.648 27.500 C 286.729 27.500,286.846 27.162,286.908 26.750 C 286.970 26.337,287.091 26.000,287.177 26.000 C 287.263 26.000,287.333 25.817,287.333 25.593 C 287.333 25.369,287.404 25.143,287.490 25.089 C 287.577 25.036,287.698 24.656,287.759 24.246 C 287.821 23.836,287.932 23.500,288.007 23.500 C 288.082 23.500,288.194 23.087,288.257 22.583 C 288.320 22.079,288.438 21.667,288.519 21.667 C 288.600 21.667,288.667 21.457,288.667 21.200 C 288.667 20.943,288.743 20.657,288.836 20.564 C 289.059 20.341,289.092 18.937,289.042 11.875 L 289.000 6.000 286.167 6.000 L 283.333 6.000 283.333 6.407 C 283.333 6.631,283.265 6.856,283.181 6.908 C 283.097 6.959,282.978 7.301,282.917 7.667 C 282.855 8.032,282.740 8.371,282.662 8.420 C 282.583 8.468,282.469 8.844,282.407 9.254 C 282.346 9.664,282.229 10.000,282.148 10.000 C 282.066 10.000,282.000 10.188,282.000 10.417 C 282.000 10.646,281.932 10.833,281.848 10.833 C 281.764 10.833,281.645 11.133,281.583 11.499 C 281.522 11.865,281.411 12.202,281.338 12.247 C 281.264 12.293,281.153 12.602,281.091 12.935 C 281.028 13.268,280.907 13.682,280.822 13.854 C 280.737 14.026,280.593 14.313,280.503 14.493 C 280.413 14.672,280.291 15.122,280.232 15.493 C 280.173 15.863,280.063 16.167,279.989 16.167 C 279.915 16.167,279.803 16.504,279.741 16.917 C 279.679 17.329,279.562 17.667,279.481 17.667 C 279.400 17.667,279.333 17.854,279.333 18.083 C 279.333 18.313,279.258 18.500,279.167 18.500 C 279.075 18.500,279.000 18.669,278.999 18.875 C 278.998 19.081,278.885 19.466,278.747 19.730 C 278.610 19.995,278.451 20.501,278.394 20.855 C 278.337 21.210,278.225 21.500,278.145 21.500 C 278.065 21.500,278.000 21.646,278.000 21.823 C 278.000 22.001,277.929 22.191,277.843 22.244 C 277.757 22.297,277.636 22.677,277.574 23.087 C 277.513 23.498,277.403 23.833,277.330 23.833 C 277.257 23.833,277.146 24.208,277.083 24.667 C 277.020 25.125,276.901 25.500,276.818 25.500 C 276.735 25.500,276.667 25.650,276.667 25.833 C 276.667 26.017,276.598 26.167,276.515 26.167 C 276.431 26.167,276.312 26.466,276.250 26.832 C 276.188 27.199,276.074 27.538,275.995 27.586 C 275.917 27.635,275.802 28.010,275.741 28.421 C 275.679 28.831,275.562 29.167,275.481 29.167 C 275.400 29.167,275.333 29.354,275.333 29.583 C 275.333 29.813,275.267 30.000,275.186 30.000 C 275.104 30.000,274.987 30.338,274.925 30.750 C 274.864 31.162,274.750 31.500,274.672 31.500 C 274.595 31.500,274.480 31.875,274.417 32.333 C 274.354 32.792,274.234 33.167,274.151 33.167 C 274.068 33.167,274.000 33.271,274.000 33.398 C 274.000 33.525,273.888 33.843,273.751 34.106 C 273.614 34.369,273.502 34.752,273.501 34.958 C 273.500 35.165,273.430 35.333,273.344 35.333 C 273.257 35.333,273.136 35.671,273.075 36.083 C 273.013 36.496,272.896 36.833,272.814 36.833 C 272.733 36.833,272.667 37.021,272.667 37.250 C 272.667 37.479,272.600 37.667,272.519 37.667 C 272.438 37.667,272.318 38.023,272.253 38.458 C 272.187 38.894,272.064 39.293,271.979 39.346 C 271.894 39.399,271.779 39.830,271.722 40.304 C 271.666 40.779,271.556 41.167,271.477 41.167 C 271.398 41.167,271.333 41.350,271.333 41.573 C 271.333 41.797,271.264 42.023,271.178 42.076 C 271.093 42.129,270.972 42.583,270.909 43.086 C 270.846 43.589,270.729 44.000,270.647 44.000 C 270.566 44.000,270.489 44.281,270.475 44.625 C 270.453 45.189,270.443 45.201,270.379 44.750 C 270.340 44.475,270.238 44.179,270.154 44.092 C 270.069 44.005,270.000 43.728,270.000 43.477 C 270.000 43.225,269.935 42.979,269.855 42.930 C 269.776 42.881,269.659 42.389,269.597 41.837 C 269.535 41.285,269.422 40.833,269.347 40.833 C 269.271 40.833,269.160 40.461,269.100 40.007 C 269.040 39.552,268.918 39.135,268.829 39.080 C 268.739 39.025,268.667 38.797,268.667 38.573 C 268.667 38.350,268.600 38.167,268.519 38.167 C 268.438 38.167,268.321 37.829,268.259 37.417 C 268.197 37.004,268.076 36.667,267.990 36.667 C 267.904 36.667,267.834 36.535,267.834 36.375 C 267.835 36.019,267.299 34.451,267.134 34.328 C 267.069 34.280,266.965 33.924,266.903 33.537 C 266.841 33.150,266.734 32.833,266.664 32.833 C 266.595 32.833,266.487 32.496,266.425 32.083 C 266.364 31.671,266.243 31.333,266.156 31.333 C 266.070 31.333,266.000 31.146,266.000 30.917 C 266.000 30.688,265.934 30.500,265.852 30.500 C 265.771 30.500,265.654 30.164,265.593 29.754 C 265.531 29.344,265.419 28.969,265.343 28.922 C 265.267 28.875,265.153 28.564,265.091 28.231 C 265.028 27.898,264.914 27.504,264.836 27.354 C 264.455 26.623,264.167 25.831,264.167 25.516 C 264.167 25.324,264.100 25.167,264.019 25.167 C 263.938 25.167,263.821 24.831,263.759 24.421 C 263.698 24.010,263.577 23.631,263.490 23.577 C 263.404 23.524,263.333 23.335,263.333 23.157 C 263.333 22.979,263.265 22.833,263.182 22.833 C 263.099 22.833,262.980 22.458,262.917 22.000 C 262.854 21.542,262.734 21.167,262.651 21.167 C 262.568 21.167,262.500 21.009,262.500 20.817 C 262.500 20.502,262.212 19.710,261.831 18.979 C 261.753 18.830,261.638 18.436,261.576 18.104 C 261.514 17.772,261.403 17.500,261.330 17.500 C 261.258 17.500,261.146 17.125,261.083 16.667 C 261.020 16.208,260.901 15.833,260.818 15.833 C 260.735 15.833,260.667 15.646,260.667 15.417 C 260.667 15.188,260.596 15.000,260.510 15.000 C 260.424 15.000,260.303 14.662,260.241 14.250 C 260.179 13.838,260.072 13.500,260.003 13.500 C 259.934 13.500,259.836 13.247,259.786 12.937 C 259.735 12.628,259.536 12.047,259.343 11.647 C 259.149 11.246,258.946 10.637,258.891 10.293 C 258.836 9.948,258.730 9.667,258.656 9.667 C 258.581 9.667,258.470 9.329,258.408 8.917 C 258.346 8.504,258.229 8.167,258.148 8.167 C 258.066 8.167,258.000 7.979,258.000 7.750 C 258.000 7.521,257.935 7.333,257.855 7.333 C 257.775 7.333,257.661 7.033,257.603 6.667 L 257.496 6.000 248.165 6.000 L 238.833 6.000 238.833 33.417 M313.500 33.417 L 313.500 60.833 329.833 60.833 L 346.167 60.833 346.167 55.750 L 346.167 50.667 336.250 50.667 L 326.333 50.667 326.333 44.510 C 326.333 40.585,326.273 38.316,326.167 38.250 C 326.062 38.185,326.000 36.304,326.000 33.157 C 326.000 29.941,326.059 28.167,326.167 28.167 C 326.275 28.167,326.333 26.083,326.333 22.250 L 326.333 16.333 335.917 16.333 L 345.500 16.333 345.500 11.167 L 345.500 6.000 329.500 6.000 L 313.500 6.000 313.500 33.417 M289.000 47.875 L 289.000 60.833 295.334 60.833 L 301.669 60.833 301.626 47.911 L 301.583 34.988 295.292 34.952 L 289.000 34.917 289.000 47.875 " stroke="none" fill="#fcfcfc" fill-rule="evenodd"></path><path id="path1" d="M36.000 11.002 L 36.000 16.003 43.458 15.960 L 50.917 15.917 50.961 10.958 L 51.005 6.000 43.502 6.000 L 36.000 6.000 36.000 11.002 M289.443 8.777 C 289.303 12.324,289.302 16.080,289.441 16.219 C 289.585 16.363,289.509 21.220,289.362 21.331 C 289.298 21.378,289.273 24.360,289.306 27.958 L 289.366 34.500 295.350 34.500 L 301.333 34.500 301.333 20.250 L 301.333 6.000 295.443 6.000 L 289.552 6.000 289.443 8.777 M326.615 28.107 C 326.552 28.170,326.500 30.460,326.500 33.194 L 326.500 38.167 335.125 38.164 C 339.869 38.163,343.845 38.101,343.961 38.028 C 344.125 37.924,344.162 36.802,344.128 32.989 L 344.083 28.083 335.407 28.038 C 330.635 28.013,326.678 28.044,326.615 28.107 M182.333 52.833 L 182.333 60.833 188.583 60.833 L 194.833 60.833 194.833 52.833 L 194.833 44.833 188.583 44.833 L 182.333 44.833 182.333 52.833 M99.333 55.750 L 99.333 60.833 109.250 60.833 L 119.167 60.833 119.167 55.750 L 119.167 50.667 109.250 50.667 L 99.333 50.667 99.333 55.750 M354.333 55.750 L 354.333 60.833 359.333 60.833 L 364.333 60.833 364.333 55.750 L 364.333 50.667 359.333 50.667 L 354.333 50.667 354.333 55.750 " stroke="none" fill="#447cf4" fill-rule="evenodd"></path><path id="path2" d="M51.206 10.925 C 51.177 14.553,51.112 15.988,50.967 16.133 C 50.815 16.285,50.814 16.333,50.963 16.333 C 51.307 16.333,51.345 15.695,51.294 10.750 L 51.245 5.917 51.206 10.925 M117.833 8.750 C 117.833 11.083,117.871 11.500,118.083 11.500 C 118.295 11.500,118.333 11.083,118.333 8.750 C 118.333 6.417,118.295 6.000,118.083 6.000 C 117.871 6.000,117.833 6.417,117.833 8.750 M210.167 11.083 C 210.167 14.361,210.226 16.167,210.333 16.167 C 210.441 16.167,210.500 14.361,210.500 11.083 C 210.500 7.806,210.441 6.000,210.333 6.000 C 210.226 6.000,210.167 7.806,210.167 11.083 M289.082 9.553 C 288.922 14.268,289.017 17.919,289.308 18.202 C 289.491 18.380,289.508 18.245,289.404 17.417 C 289.334 16.867,289.289 14.073,289.302 11.208 C 289.316 8.344,289.299 6.000,289.265 6.000 C 289.231 6.000,289.149 7.599,289.082 9.553 M326.206 33.028 C 326.184 35.748,326.212 38.091,326.268 38.236 C 326.378 38.522,337.910 38.598,342.167 38.340 C 343.327 38.270,340.582 38.213,335.211 38.195 L 326.338 38.167 326.292 33.125 L 326.245 28.083 326.206 33.028 M289.109 34.708 C 289.152 34.777,291.952 34.833,295.333 34.833 C 298.714 34.833,301.515 34.777,301.558 34.708 C 301.600 34.640,298.799 34.583,295.333 34.583 C 291.868 34.583,289.067 34.640,289.109 34.708 M99.500 37.819 C 99.500 37.995,99.406 38.177,99.292 38.223 C 99.167 38.273,99.201 38.312,99.375 38.320 C 99.579 38.329,99.667 38.207,99.667 37.917 C 99.667 37.688,99.629 37.500,99.583 37.500 C 99.537 37.500,99.500 37.644,99.500 37.819 M194.910 52.583 C 194.910 56.983,194.932 58.759,194.958 56.530 C 194.984 54.301,194.984 50.701,194.958 48.530 C 194.932 46.359,194.910 48.183,194.910 52.583 M346.407 55.750 C 346.407 58.592,346.430 59.778,346.458 58.385 C 346.486 56.993,346.486 54.668,346.458 53.219 C 346.430 51.769,346.408 52.908,346.407 55.750 M104.125 60.958 C 106.898 60.984,111.435 60.984,114.208 60.958 C 116.981 60.933,114.712 60.912,109.167 60.912 C 103.621 60.912,101.352 60.933,104.125 60.958 " stroke="none" fill="#dce4fc" fill-rule="evenodd"></path><path id="path3" d="M289.062 7.750 C 289.063 8.758,289.090 9.149,289.123 8.619 C 289.157 8.088,289.156 7.263,289.123 6.786 C 289.089 6.308,289.062 6.742,289.062 7.750 M51.407 11.083 C 51.407 13.742,51.430 14.806,51.458 13.448 C 51.486 12.090,51.486 9.915,51.458 8.615 C 51.430 7.314,51.407 8.425,51.407 11.083 M51.239 20.083 C 51.239 22.375,51.262 23.336,51.291 22.218 C 51.320 21.100,51.320 19.225,51.291 18.051 C 51.263 16.877,51.239 17.792,51.239 20.083 M326.035 33.115 C 326.016 35.883,326.056 38.182,326.125 38.224 C 326.194 38.267,326.231 36.790,326.207 34.943 C 326.128 28.676,326.071 28.068,326.035 33.115 M292.302 34.958 C 293.981 34.985,296.681 34.985,298.302 34.958 C 299.924 34.931,298.550 34.909,295.250 34.909 C 291.950 34.909,290.624 34.931,292.302 34.958 M99.064 37.574 C 99.013 37.706,99.007 37.949,99.050 38.115 C 99.103 38.318,99.134 38.272,99.147 37.972 C 99.158 37.728,99.260 37.490,99.375 37.444 C 99.538 37.378,99.537 37.357,99.370 37.346 C 99.252 37.339,99.115 37.441,99.064 37.574 M185.208 44.625 C 187.019 44.652,189.981 44.652,191.792 44.625 C 193.602 44.598,192.121 44.576,188.500 44.576 C 184.879 44.576,183.398 44.598,185.208 44.625 M99.074 55.833 C 99.074 58.721,99.097 59.902,99.125 58.458 C 99.152 57.015,99.152 54.652,99.125 53.208 C 99.097 51.765,99.074 52.946,99.074 55.833 M346.241 55.750 C 346.241 58.592,346.263 59.778,346.291 58.385 C 346.319 56.993,346.319 54.668,346.291 53.219 C 346.264 51.769,346.241 52.908,346.241 55.750 " stroke="none" fill="#ececfc" fill-rule="evenodd"></path><path id="path4" d="M35.667 11.167 L 35.667 16.333 43.217 16.333 C 48.867 16.333,50.817 16.283,50.967 16.133 C 51.115 15.985,51.157 14.642,51.129 10.925 L 51.091 5.917 51.004 10.917 L 50.917 15.917 43.458 15.960 L 36.000 16.003 36.000 11.002 C 36.000 7.778,35.941 6.000,35.833 6.000 C 35.726 6.000,35.667 7.833,35.667 11.167 M289.276 8.777 C 289.054 14.399,289.164 17.059,289.598 16.624 C 289.662 16.560,289.617 16.391,289.497 16.247 C 289.324 16.038,289.304 14.978,289.395 10.993 C 289.458 8.247,289.481 6.000,289.447 6.000 C 289.413 6.000,289.336 7.249,289.276 8.777 M301.333 20.250 L 301.333 34.500 295.333 34.500 L 289.333 34.500 289.333 28.760 C 289.333 25.603,289.268 22.979,289.188 22.930 C 289.106 22.879,289.051 25.401,289.063 28.712 L 289.083 34.583 295.333 34.583 L 301.583 34.583 301.626 20.292 C 301.654 10.794,301.612 6.000,301.501 6.000 C 301.390 6.000,301.333 10.808,301.333 20.250 M289.167 19.740 C 289.167 20.691,289.234 21.333,289.333 21.333 C 289.432 21.333,289.500 20.726,289.500 19.843 C 289.500 19.024,289.425 18.307,289.333 18.250 C 289.227 18.184,289.167 18.720,289.167 19.740 M326.369 33.125 C 326.404 38.263,326.461 37.682,326.541 31.375 C 326.564 29.518,326.527 28.000,326.458 28.000 C 326.390 28.000,326.349 30.306,326.369 33.125 M99.167 37.833 C 99.167 38.017,99.242 38.167,99.333 38.167 C 99.425 38.167,99.500 38.017,99.500 37.833 C 99.500 37.650,99.425 37.500,99.333 37.500 C 99.242 37.500,99.167 37.650,99.167 37.833 M343.913 38.161 C 343.974 38.259,343.343 38.343,342.298 38.376 L 340.583 38.430 342.375 38.465 C 343.872 38.494,344.167 38.459,344.167 38.250 C 344.167 38.112,344.087 38.000,343.990 38.000 C 343.893 38.000,343.858 38.072,343.913 38.161 M182.208 44.777 C 181.941 44.885,181.900 60.833,182.167 60.833 C 182.275 60.833,182.333 58.056,182.333 52.835 L 182.333 44.837 188.625 44.792 L 194.917 44.746 188.667 44.719 C 185.229 44.705,182.323 44.731,182.208 44.777 M99.241 55.750 C 99.241 58.592,99.263 59.778,99.291 58.385 C 99.319 56.993,99.319 54.668,99.291 53.219 C 99.264 51.769,99.241 52.908,99.241 55.750 M119.167 55.847 C 119.167 59.918,119.211 61.013,119.375 60.958 C 119.718 60.844,119.761 50.667,119.419 50.667 C 119.199 50.667,119.167 51.331,119.167 55.847 M346.500 55.750 C 346.500 59.028,346.559 60.833,346.667 60.833 C 346.774 60.833,346.833 59.028,346.833 55.750 C 346.833 52.472,346.774 50.667,346.667 50.667 C 346.559 50.667,346.500 52.472,346.500 55.750 " stroke="none" fill="#6cc0f8" fill-rule="evenodd"></path></g></svg>