<svg id="svg" version="1.1" xmlns="http://www.w3.org/2000/svg" xmlns:xlink="http://www.w3.org/1999/xlink" width="400" height="67.46666666666667" viewBox="0, 0, 400,67.46666666666667"><g id="svgg"><path id="path0" d="M180.500 14.652 L 180.500 19.637 181.173 19.751 C 181.542 19.813,182.629 19.811,183.587 19.746 C 185.041 19.647,185.344 19.668,185.422 19.872 C 185.494 20.057,185.716 20.097,186.341 20.037 C 186.889 19.984,187.167 20.021,187.167 20.145 C 187.167 20.249,187.428 20.333,187.750 20.333 C 188.071 20.333,188.333 20.398,188.333 20.477 C 188.333 20.556,188.512 20.586,188.730 20.545 C 188.949 20.503,189.178 20.551,189.240 20.651 C 189.302 20.751,189.536 20.833,189.760 20.833 C 189.984 20.833,190.167 20.900,190.167 20.981 C 190.167 21.063,190.298 21.119,190.458 21.106 C 190.619 21.094,190.735 21.166,190.717 21.267 C 190.697 21.376,190.848 21.419,191.092 21.373 C 191.328 21.327,191.500 21.373,191.500 21.481 C 191.500 21.583,191.594 21.669,191.708 21.672 C 191.823 21.675,192.217 21.823,192.583 22.000 C 193.734 22.556,193.667 22.861,193.667 17.089 L 193.667 11.845 193.292 11.638 C 193.085 11.523,192.829 11.448,192.721 11.469 C 192.613 11.491,192.478 11.432,192.419 11.338 C 192.361 11.244,192.093 11.167,191.823 11.167 C 191.554 11.167,191.333 11.092,191.333 11.000 C 191.333 10.908,191.063 10.833,190.732 10.833 C 190.289 10.833,190.154 10.773,190.220 10.603 C 190.291 10.416,190.220 10.405,189.845 10.547 C 189.314 10.747,188.604 10.578,188.987 10.342 C 189.116 10.262,188.736 10.240,188.107 10.290 C 187.439 10.344,187.000 10.315,187.000 10.217 C 187.000 10.122,186.358 10.058,185.471 10.064 C 184.409 10.070,183.920 10.011,183.873 9.870 C 183.826 9.728,183.304 9.667,182.153 9.667 L 180.500 9.667 180.500 14.652 M15.833 15.167 L 15.833 19.833 22.833 19.833 L 29.833 19.833 29.833 15.167 L 29.833 10.500 22.833 10.500 L 15.833 10.500 15.833 15.167 M121.482 10.625 C 121.471 10.694,121.477 10.919,121.493 11.125 C 121.510 11.331,121.451 11.500,121.361 11.500 C 121.271 11.500,121.237 11.650,121.285 11.833 C 121.334 12.020,121.290 12.167,121.186 12.167 C 121.084 12.167,121.000 12.335,120.999 12.542 C 120.998 12.748,120.886 13.131,120.749 13.394 C 120.612 13.657,120.500 13.975,120.500 14.102 C 120.500 14.229,120.434 14.333,120.352 14.333 C 120.271 14.333,120.154 14.669,120.093 15.079 C 120.031 15.490,119.910 15.869,119.824 15.923 C 119.737 15.976,119.667 16.135,119.667 16.276 C 119.667 16.512,119.340 17.363,118.997 18.021 C 118.920 18.170,118.805 18.564,118.743 18.896 C 118.681 19.228,118.563 19.500,118.481 19.500 C 118.400 19.500,118.333 19.688,118.333 19.917 C 118.333 20.146,118.261 20.333,118.172 20.333 C 118.083 20.333,118.051 20.438,118.100 20.566 C 118.149 20.695,118.109 20.849,118.011 20.910 C 117.913 20.970,117.833 21.203,117.833 21.427 C 117.833 21.650,117.765 21.833,117.681 21.833 C 117.598 21.833,117.479 22.133,117.417 22.500 C 117.355 22.867,117.236 23.167,117.152 23.167 C 117.068 23.167,117.000 23.354,117.000 23.583 C 117.000 23.813,116.927 24.000,116.839 24.000 C 116.750 24.000,116.717 24.105,116.767 24.233 C 116.816 24.361,116.776 24.516,116.678 24.576 C 116.580 24.637,116.500 24.869,116.500 25.093 C 116.500 25.317,116.425 25.500,116.333 25.500 C 116.242 25.500,116.167 25.658,116.167 25.851 C 116.167 26.093,116.090 26.173,115.919 26.107 C 115.711 26.027,115.704 26.068,115.877 26.361 C 116.041 26.639,116.041 26.726,115.875 26.786 C 115.760 26.827,115.667 27.042,115.667 27.264 C 115.667 27.485,115.594 27.667,115.505 27.667 C 115.416 27.667,115.384 27.772,115.433 27.900 C 115.482 28.028,115.443 28.182,115.345 28.243 C 115.247 28.303,115.167 28.536,115.167 28.760 C 115.167 28.984,115.092 29.167,115.000 29.167 C 114.908 29.167,114.833 29.325,114.833 29.518 C 114.833 29.775,114.760 29.841,114.560 29.764 C 114.329 29.675,114.320 29.699,114.502 29.919 C 114.661 30.111,114.671 30.273,114.540 30.547 C 114.264 31.125,114.111 31.572,114.142 31.713 C 114.157 31.784,114.068 31.882,113.943 31.930 C 113.804 31.983,113.746 32.175,113.794 32.425 C 113.837 32.650,113.795 32.833,113.701 32.833 C 113.606 32.833,113.479 33.133,113.417 33.499 C 113.355 33.865,113.242 34.203,113.167 34.250 C 113.091 34.297,112.978 34.635,112.917 35.001 C 112.855 35.367,112.730 35.667,112.640 35.667 C 112.550 35.667,112.501 35.835,112.530 36.042 L 112.583 36.417 117.647 36.461 C 121.148 36.491,122.778 36.448,122.931 36.321 C 123.053 36.221,123.236 36.190,123.338 36.253 C 123.450 36.322,123.438 36.230,123.308 36.022 C 123.137 35.748,123.135 35.632,123.296 35.471 C 123.408 35.359,123.500 35.094,123.500 34.883 C 123.500 34.672,123.568 34.500,123.651 34.500 C 123.734 34.500,123.854 34.125,123.917 33.667 C 123.980 33.208,124.099 32.833,124.182 32.833 C 124.265 32.833,124.333 32.646,124.333 32.417 C 124.333 32.188,124.413 32.000,124.511 32.000 C 124.611 32.000,124.644 31.859,124.588 31.681 C 124.532 31.505,124.564 31.313,124.660 31.254 C 124.755 31.195,124.833 30.956,124.833 30.722 C 124.833 30.440,124.907 30.326,125.052 30.382 C 125.210 30.442,125.251 30.332,125.200 29.983 C 125.161 29.717,125.205 29.500,125.299 29.500 C 125.392 29.500,125.432 29.358,125.387 29.185 C 125.341 29.012,125.386 28.821,125.485 28.759 C 125.585 28.697,125.667 28.464,125.667 28.240 C 125.667 28.016,125.735 27.833,125.818 27.833 C 125.901 27.833,125.932 27.692,125.887 27.519 C 125.841 27.346,125.886 27.154,125.985 27.092 C 126.085 27.031,126.167 26.797,126.167 26.573 C 126.167 26.350,126.235 26.167,126.318 26.167 C 126.401 26.167,126.520 25.792,126.583 25.333 C 126.646 24.875,126.766 24.500,126.849 24.500 C 126.932 24.500,127.000 24.313,127.000 24.083 C 127.000 23.823,127.094 23.667,127.251 23.667 C 127.460 23.667,127.468 23.611,127.297 23.337 C 127.135 23.078,127.135 22.965,127.296 22.804 C 127.408 22.692,127.500 22.353,127.500 22.050 C 127.500 21.748,127.575 21.500,127.667 21.500 C 127.758 21.500,127.833 21.092,127.833 20.593 C 127.833 20.094,127.908 19.640,128.000 19.583 C 128.099 19.522,128.167 19.720,128.167 20.073 C 128.167 21.368,128.532 20.776,128.829 19.000 C 128.928 18.404,129.077 17.579,129.159 17.167 C 129.241 16.754,129.433 15.667,129.586 14.750 C 129.739 13.833,129.969 12.581,130.099 11.967 C 130.228 11.353,130.333 10.772,130.333 10.675 C 130.333 10.471,121.512 10.421,121.482 10.625 M202.667 39.917 L 202.667 50.000 208.167 50.000 L 213.667 50.000 213.667 43.083 C 213.667 38.583,213.725 36.167,213.833 36.167 C 213.925 36.167,214.000 35.754,214.000 35.250 C 214.000 34.746,213.925 34.333,213.833 34.333 C 213.730 34.333,213.667 33.472,213.667 32.083 L 213.667 29.833 208.167 29.833 L 202.667 29.833 202.667 39.917 M349.000 35.333 L 349.000 40.000 356.667 40.000 L 364.333 40.000 364.333 35.333 L 364.333 30.667 356.667 30.667 L 349.000 30.667 349.000 35.333 M62.667 51.333 L 62.667 60.833 68.167 60.833 L 73.667 60.833 73.667 51.333 L 73.667 41.833 68.167 41.833 L 62.667 41.833 62.667 51.333 M314.333 52.167 L 314.333 60.833 319.833 60.833 L 325.333 60.833 325.333 52.167 L 325.333 43.500 319.833 43.500 L 314.333 43.500 314.333 52.167 M373.167 55.750 L 373.167 60.833 378.250 60.833 L 383.333 60.833 383.333 55.750 L 383.333 50.667 378.250 50.667 L 373.167 50.667 373.167 55.750 " stroke="none" fill="#447cf4" fill-rule="evenodd"></path><path id="path1" d="M177.000 9.833 C 177.000 9.925,176.644 10.002,176.208 10.004 C 175.773 10.006,175.117 10.088,174.750 10.186 C 174.383 10.284,173.840 10.403,173.542 10.450 C 173.244 10.498,173.000 10.594,173.000 10.663 C 173.000 10.733,172.628 10.840,172.174 10.900 C 171.719 10.960,171.302 11.082,171.247 11.171 C 171.192 11.261,171.020 11.334,170.865 11.334 C 170.710 11.335,170.369 11.447,170.106 11.584 C 169.843 11.721,169.525 11.833,169.398 11.833 C 169.271 11.833,169.167 11.902,169.167 11.987 C 169.167 12.071,168.942 12.190,168.667 12.250 C 168.392 12.310,168.167 12.421,168.167 12.495 C 168.167 12.570,167.996 12.673,167.788 12.725 C 167.580 12.778,167.259 12.955,167.075 13.119 C 166.891 13.283,166.386 13.603,165.953 13.830 C 165.521 14.057,165.167 14.301,165.167 14.372 C 165.167 14.442,165.082 14.500,164.977 14.500 C 164.873 14.500,164.614 14.688,164.402 14.917 C 164.190 15.146,163.949 15.333,163.866 15.333 C 163.661 15.333,161.145 17.829,160.561 18.613 C 160.299 18.963,159.991 19.310,159.876 19.383 C 159.761 19.457,159.667 19.596,159.667 19.693 C 159.667 19.789,159.478 20.104,159.247 20.393 C 159.017 20.681,158.764 20.997,158.685 21.096 C 158.605 21.195,158.489 21.439,158.426 21.638 C 158.363 21.837,158.241 22.000,158.155 22.000 C 158.070 22.000,158.000 22.113,158.000 22.250 C 158.000 22.387,157.931 22.500,157.847 22.500 C 157.762 22.500,157.644 22.725,157.583 23.000 C 157.523 23.275,157.413 23.500,157.339 23.500 C 157.264 23.500,157.155 23.762,157.094 24.083 C 157.034 24.404,156.913 24.667,156.826 24.667 C 156.738 24.667,156.667 24.854,156.667 25.083 C 156.667 25.313,156.593 25.500,156.502 25.500 C 156.411 25.500,156.289 25.800,156.231 26.167 C 156.172 26.533,156.067 26.833,155.998 26.833 C 155.929 26.833,155.820 27.245,155.758 27.747 C 155.695 28.250,155.574 28.705,155.488 28.757 C 155.403 28.810,155.333 29.105,155.333 29.413 C 155.333 29.720,155.260 29.997,155.169 30.028 C 155.079 30.058,154.955 30.965,154.894 32.042 C 154.833 33.119,154.719 34.000,154.641 34.000 C 154.564 34.000,154.500 35.237,154.500 36.750 C 154.500 38.262,154.564 39.500,154.642 39.500 C 154.719 39.500,154.834 40.342,154.897 41.372 C 154.959 42.402,155.083 43.317,155.172 43.405 C 155.261 43.494,155.333 43.777,155.333 44.033 C 155.333 44.290,155.398 44.500,155.477 44.500 C 155.556 44.500,155.666 44.883,155.721 45.351 C 155.776 45.819,155.884 46.288,155.959 46.393 C 156.035 46.498,156.237 47.015,156.409 47.542 C 156.580 48.069,156.775 48.500,156.842 48.500 C 156.908 48.500,157.012 48.762,157.072 49.083 C 157.133 49.404,157.253 49.667,157.341 49.667 C 157.428 49.667,157.500 49.750,157.500 49.852 C 157.500 50.115,159.006 52.500,159.172 52.500 C 159.247 52.500,159.333 52.605,159.363 52.733 C 159.530 53.454,163.213 57.137,163.934 57.304 C 164.062 57.334,164.167 57.422,164.167 57.501 C 164.167 57.580,164.319 57.693,164.505 57.752 C 164.692 57.811,165.040 58.041,165.280 58.263 C 165.519 58.485,165.854 58.667,166.024 58.667 C 166.194 58.667,166.333 58.736,166.333 58.820 C 166.333 58.904,166.558 59.023,166.833 59.083 C 167.108 59.144,167.333 59.259,167.333 59.339 C 167.333 59.419,167.596 59.534,167.917 59.594 C 168.237 59.655,168.500 59.770,168.500 59.852 C 168.500 59.933,168.646 60.000,168.823 60.000 C 169.001 60.000,169.191 60.071,169.244 60.157 C 169.297 60.243,169.677 60.364,170.087 60.426 C 170.498 60.487,170.833 60.600,170.833 60.675 C 170.833 60.751,171.358 60.865,172.000 60.928 C 172.642 60.991,173.167 61.108,173.167 61.188 C 173.167 61.268,173.537 61.333,173.990 61.333 C 174.443 61.333,174.860 61.408,174.917 61.500 C 175.057 61.727,184.610 61.727,184.750 61.500 C 184.807 61.408,185.299 61.333,185.843 61.333 C 186.388 61.333,186.833 61.268,186.833 61.188 C 186.833 61.108,187.433 60.991,188.167 60.927 C 188.900 60.863,189.500 60.749,189.500 60.674 C 189.500 60.600,189.912 60.487,190.417 60.424 C 190.921 60.361,191.333 60.240,191.333 60.155 C 191.333 60.070,191.521 60.000,191.750 60.000 C 191.979 60.000,192.167 59.933,192.167 59.851 C 192.167 59.770,192.373 59.653,192.625 59.592 C 192.877 59.531,193.290 59.392,193.542 59.283 L 194.000 59.085 194.000 53.709 L 194.000 48.333 193.593 48.333 C 193.370 48.333,192.753 48.558,192.223 48.833 C 191.693 49.108,191.163 49.333,191.046 49.333 C 190.929 49.333,190.833 49.407,190.833 49.498 C 190.833 49.589,190.533 49.711,190.167 49.769 C 189.800 49.828,189.500 49.941,189.500 50.021 C 189.500 50.101,189.313 50.167,189.083 50.167 C 188.854 50.167,188.667 50.233,188.667 50.314 C 188.667 50.395,188.235 50.515,187.708 50.580 C 187.181 50.645,186.645 50.785,186.516 50.891 C 186.170 51.175,177.761 51.160,177.475 50.875 C 177.360 50.760,177.075 50.666,176.842 50.666 C 176.608 50.665,176.202 50.553,175.939 50.416 C 175.677 50.279,175.358 50.167,175.231 50.167 C 175.104 50.167,175.000 50.098,175.000 50.013 C 175.000 49.929,174.775 49.810,174.500 49.750 C 174.225 49.690,174.000 49.576,174.000 49.498 C 174.000 49.420,173.842 49.306,173.649 49.244 C 173.456 49.183,173.147 49.009,172.963 48.858 C 172.255 48.277,171.276 47.407,171.100 47.203 C 170.999 47.086,170.635 46.695,170.292 46.335 C 169.948 45.974,169.667 45.599,169.667 45.501 C 169.667 45.403,169.554 45.280,169.417 45.227 C 169.279 45.174,169.167 45.065,169.167 44.983 C 169.167 44.712,168.590 43.500,168.461 43.500 C 168.391 43.500,168.333 43.406,168.332 43.292 C 168.332 43.177,168.216 42.862,168.074 42.591 C 167.933 42.320,167.773 41.776,167.719 41.382 C 167.666 40.989,167.557 40.667,167.477 40.667 C 167.398 40.667,167.333 40.373,167.333 40.014 C 167.333 39.655,167.250 39.333,167.148 39.299 C 166.887 39.212,166.884 32.883,167.145 32.622 C 167.249 32.518,167.333 32.190,167.333 31.893 C 167.333 31.596,167.400 31.312,167.481 31.262 C 167.561 31.212,167.679 30.758,167.743 30.252 C 167.806 29.747,167.921 29.333,167.999 29.333 C 168.077 29.333,168.194 29.090,168.259 28.792 C 168.325 28.494,168.555 27.989,168.772 27.670 C 168.989 27.350,169.167 26.994,169.167 26.878 C 169.167 26.762,169.242 26.667,169.333 26.667 C 169.425 26.667,169.500 26.558,169.500 26.425 C 169.500 26.292,169.596 26.123,169.712 26.050 C 169.829 25.977,170.055 25.712,170.214 25.461 C 170.590 24.871,172.120 23.381,172.708 23.033 C 172.960 22.883,173.167 22.703,173.167 22.631 C 173.167 22.559,173.279 22.500,173.417 22.500 C 173.554 22.500,173.667 22.426,173.667 22.337 C 173.667 22.247,173.854 22.126,174.083 22.068 C 174.313 22.011,174.500 21.897,174.500 21.815 C 174.500 21.734,174.594 21.666,174.708 21.666 C 174.823 21.666,175.292 21.475,175.750 21.241 C 176.208 21.008,176.902 20.773,177.292 20.719 C 177.681 20.665,178.000 20.566,178.000 20.499 C 178.000 20.432,178.532 20.324,179.183 20.260 C 180.294 20.150,180.360 20.121,180.269 19.780 C 180.215 19.580,180.170 17.223,180.169 14.542 L 180.167 9.667 178.583 9.667 C 177.639 9.667,177.000 9.734,177.000 9.833 M30.128 15.208 L 30.083 19.917 23.000 20.003 L 15.917 20.089 22.958 20.128 L 30.000 20.167 30.000 40.500 L 30.000 60.833 35.833 60.833 L 41.667 60.833 41.667 40.500 L 41.667 20.167 48.486 20.167 C 52.237 20.167,55.425 20.121,55.570 20.066 C 55.802 19.977,55.833 19.394,55.833 15.232 L 55.833 10.500 43.003 10.500 L 30.172 10.500 30.128 15.208 M62.333 26.000 L 62.333 41.500 67.708 41.529 C 78.020 41.584,78.422 41.598,78.369 41.890 C 78.343 42.034,78.531 42.285,78.786 42.447 C 79.041 42.609,79.287 42.790,79.333 42.849 C 79.379 42.907,79.582 43.007,79.783 43.069 C 79.985 43.132,80.196 43.330,80.253 43.509 C 80.309 43.687,80.426 43.833,80.511 43.833 C 80.597 43.833,80.667 43.912,80.667 44.008 C 80.667 44.104,80.854 44.356,81.083 44.569 C 81.313 44.781,81.500 45.028,81.500 45.118 C 81.500 45.208,81.656 45.423,81.847 45.596 C 82.038 45.769,82.302 46.136,82.435 46.413 C 82.786 47.148,83.078 47.626,83.378 47.957 C 83.524 48.119,83.724 48.438,83.821 48.667 C 84.000 49.086,84.345 49.678,84.500 49.833 C 84.668 50.002,85.012 50.592,85.108 50.875 C 85.161 51.035,85.264 51.167,85.335 51.167 C 85.406 51.167,85.507 51.337,85.559 51.545 C 85.611 51.753,85.788 52.074,85.952 52.258 C 86.116 52.443,86.438 52.964,86.667 53.417 C 86.896 53.870,87.214 54.387,87.373 54.566 C 87.532 54.745,87.711 55.044,87.770 55.230 C 87.829 55.416,87.980 55.670,88.105 55.796 C 88.231 55.921,88.333 56.131,88.333 56.262 C 88.333 56.393,88.408 56.500,88.500 56.500 C 88.592 56.500,88.667 56.612,88.667 56.750 C 88.667 56.887,88.740 57.000,88.830 57.000 C 88.920 57.000,89.041 57.187,89.098 57.417 C 89.156 57.646,89.262 57.833,89.333 57.833 C 89.405 57.833,89.511 58.021,89.568 58.250 C 89.626 58.479,89.747 58.667,89.837 58.667 C 89.926 58.667,90.000 58.779,90.000 58.917 C 90.000 59.054,90.075 59.167,90.167 59.167 C 90.258 59.167,90.333 59.274,90.333 59.405 C 90.333 59.536,90.436 59.745,90.561 59.871 C 90.687 59.996,90.838 60.252,90.897 60.439 C 91.022 60.833,96.556 61.002,109.250 60.997 C 116.465 60.995,116.089 61.050,116.253 59.958 C 116.318 59.523,116.438 59.167,116.519 59.167 C 116.600 59.167,116.667 58.984,116.667 58.760 C 116.667 58.536,116.735 58.311,116.818 58.260 C 116.901 58.208,117.020 57.791,117.083 57.333 C 117.146 56.875,117.261 56.500,117.339 56.500 C 117.416 56.500,117.530 56.162,117.592 55.750 C 117.654 55.337,117.771 55.000,117.852 55.000 C 117.934 55.000,118.000 54.817,118.000 54.593 C 118.000 54.369,118.073 54.141,118.162 54.086 C 118.251 54.031,118.373 53.614,118.433 53.160 C 118.494 52.705,118.601 52.333,118.672 52.333 C 118.744 52.333,118.854 51.958,118.917 51.500 C 118.980 51.042,119.099 50.667,119.182 50.667 C 119.265 50.667,119.333 50.479,119.333 50.250 L 119.333 49.833 127.929 49.833 C 137.441 49.833,136.874 49.763,137.078 50.967 C 137.143 51.351,137.260 51.705,137.338 51.753 C 137.417 51.801,137.531 52.178,137.593 52.589 C 137.655 53.001,137.771 53.378,137.853 53.429 C 137.934 53.479,138.000 53.703,138.000 53.927 C 138.000 54.150,138.068 54.333,138.151 54.333 C 138.234 54.333,138.354 54.708,138.417 55.167 C 138.480 55.625,138.590 56.000,138.661 56.000 C 138.732 56.000,138.839 56.303,138.898 56.674 C 139.002 57.320,139.058 57.478,139.460 58.267 C 139.558 58.460,139.691 58.966,139.755 59.392 C 139.819 59.818,139.938 60.167,140.019 60.167 C 140.100 60.167,140.167 60.355,140.167 60.585 L 140.167 61.004 146.542 60.960 L 152.917 60.917 152.972 60.522 C 153.003 60.306,152.947 60.047,152.847 59.947 C 152.748 59.848,152.667 59.632,152.667 59.467 C 152.667 59.302,152.596 59.167,152.510 59.167 C 152.424 59.167,152.303 58.829,152.241 58.417 C 152.179 58.004,152.062 57.667,151.981 57.667 C 151.900 57.667,151.834 57.535,151.834 57.375 C 151.835 57.019,151.299 55.451,151.134 55.328 C 151.069 55.280,150.965 54.924,150.903 54.537 C 150.841 54.150,150.732 53.833,150.660 53.833 C 150.588 53.833,150.479 53.534,150.417 53.168 C 150.355 52.801,150.236 52.459,150.152 52.408 C 150.068 52.356,150.000 52.131,150.000 51.907 C 150.000 51.683,149.932 51.500,149.848 51.500 C 149.764 51.500,149.645 51.200,149.583 50.833 C 149.521 50.467,149.411 50.167,149.338 50.167 C 149.264 50.167,149.154 49.831,149.093 49.421 C 149.031 49.010,148.910 48.631,148.824 48.577 C 148.737 48.524,148.667 48.335,148.667 48.157 C 148.667 47.979,148.592 47.833,148.500 47.833 C 148.408 47.833,148.333 47.665,148.332 47.458 C 148.332 47.252,148.219 46.867,148.081 46.603 C 147.943 46.339,147.784 45.832,147.727 45.478 C 147.670 45.123,147.559 44.833,147.479 44.833 C 147.399 44.833,147.333 44.646,147.333 44.417 C 147.333 44.188,147.267 44.000,147.185 44.000 C 147.104 44.000,146.988 43.741,146.929 43.424 C 146.870 43.107,146.712 42.638,146.578 42.382 C 146.445 42.126,146.335 41.748,146.334 41.542 C 146.334 41.335,146.258 41.167,146.167 41.167 C 146.075 41.167,146.000 40.979,146.000 40.750 C 146.000 40.521,145.934 40.333,145.852 40.333 C 145.771 40.333,145.654 39.998,145.593 39.587 C 145.531 39.177,145.410 38.797,145.324 38.744 C 145.237 38.691,145.166 38.520,145.166 38.365 C 145.165 38.210,145.053 37.869,144.916 37.606 C 144.779 37.343,144.667 37.025,144.667 36.898 C 144.667 36.771,144.599 36.667,144.516 36.667 C 144.433 36.667,144.313 36.292,144.250 35.833 C 144.187 35.375,144.067 35.000,143.984 35.000 C 143.901 35.000,143.833 34.831,143.832 34.625 C 143.832 34.419,143.719 34.035,143.582 33.773 C 143.445 33.510,143.333 33.191,143.333 33.064 C 143.333 32.937,143.267 32.833,143.186 32.833 C 143.104 32.833,142.987 32.496,142.925 32.083 C 142.864 31.671,142.752 31.333,142.678 31.333 C 142.604 31.333,142.503 31.080,142.452 30.771 C 142.402 30.461,142.203 29.880,142.009 29.480 C 141.816 29.079,141.613 28.470,141.557 28.126 C 141.502 27.782,141.399 27.500,141.327 27.500 C 141.255 27.500,141.145 27.200,141.083 26.834 C 141.022 26.468,140.903 26.126,140.819 26.074 C 140.735 26.023,140.667 25.797,140.667 25.573 C 140.667 25.350,140.593 25.167,140.502 25.167 C 140.411 25.167,140.289 24.867,140.231 24.500 C 140.172 24.133,140.067 23.833,139.998 23.833 C 139.928 23.833,139.821 23.498,139.759 23.087 C 139.698 22.677,139.577 22.297,139.490 22.244 C 139.404 22.191,139.333 22.001,139.333 21.823 C 139.333 21.646,139.268 21.500,139.188 21.500 C 139.108 21.500,138.995 21.200,138.936 20.833 C 138.877 20.467,138.762 20.167,138.680 20.167 C 138.598 20.167,138.480 19.792,138.417 19.333 C 138.354 18.875,138.234 18.500,138.151 18.500 C 138.068 18.500,138.000 18.313,138.000 18.083 C 138.000 17.854,137.932 17.667,137.848 17.667 C 137.764 17.667,137.645 17.367,137.583 17.001 C 137.522 16.635,137.409 16.297,137.333 16.250 C 137.258 16.203,137.145 15.865,137.083 15.499 C 137.021 15.133,136.902 14.833,136.819 14.833 C 136.735 14.833,136.667 14.646,136.667 14.417 C 136.667 14.188,136.600 14.000,136.519 14.000 C 136.438 14.000,136.321 13.664,136.259 13.254 C 136.198 12.844,136.077 12.464,135.990 12.411 C 135.904 12.357,135.833 12.206,135.833 12.075 C 135.833 11.943,135.703 11.535,135.544 11.168 L 135.255 10.500 132.914 10.500 L 130.574 10.500 130.359 11.875 C 130.241 12.631,130.041 13.813,129.915 14.500 C 129.788 15.188,129.561 16.462,129.410 17.333 C 129.128 18.963,128.850 20.365,128.476 22.048 C 128.307 22.809,128.305 23.082,128.464 23.338 C 128.576 23.516,128.667 23.813,128.667 23.998 C 128.667 24.182,128.742 24.333,128.833 24.333 C 128.925 24.333,129.000 24.517,129.000 24.742 C 129.000 24.966,129.102 25.210,129.226 25.283 C 129.360 25.363,129.490 25.848,129.545 26.478 C 129.597 27.061,129.720 27.620,129.819 27.719 C 129.919 27.819,130.000 28.072,130.000 28.283 C 130.000 28.494,130.070 28.667,130.156 28.667 C 130.243 28.667,130.364 29.004,130.425 29.417 C 130.487 29.829,130.595 30.167,130.664 30.167 C 130.734 30.167,130.840 30.539,130.900 30.993 C 130.960 31.448,131.082 31.865,131.171 31.920 C 131.261 31.975,131.333 32.203,131.333 32.427 C 131.333 32.650,131.401 32.833,131.484 32.833 C 131.567 32.833,131.687 33.208,131.750 33.667 C 131.813 34.125,131.924 34.500,131.997 34.500 C 132.069 34.500,132.179 34.836,132.241 35.246 C 132.302 35.656,132.423 36.036,132.510 36.089 C 132.596 36.143,132.667 36.369,132.667 36.593 C 132.667 36.817,132.735 37.000,132.818 37.000 C 132.901 37.000,133.020 37.375,133.083 37.833 C 133.146 38.292,133.259 38.667,133.333 38.667 C 133.408 38.667,133.520 39.042,133.583 39.500 C 133.646 39.958,133.766 40.333,133.849 40.333 C 133.932 40.333,134.000 40.446,134.000 40.583 C 134.000 40.801,133.222 40.833,128.000 40.833 C 122.778 40.833,122.000 40.801,122.000 40.583 C 122.000 40.446,122.068 40.333,122.151 40.333 C 122.234 40.333,122.354 39.958,122.417 39.500 C 122.480 39.042,122.584 38.667,122.649 38.667 C 122.753 38.667,123.180 36.973,123.099 36.882 C 123.082 36.862,120.538 36.825,117.446 36.798 L 111.824 36.750 111.724 37.375 C 111.669 37.719,111.577 38.000,111.519 38.000 C 111.387 38.000,111.054 38.765,110.903 39.417 C 110.839 39.692,110.731 39.992,110.663 40.083 C 110.594 40.175,110.487 40.491,110.424 40.785 C 110.361 41.079,110.159 41.632,109.975 42.013 C 109.790 42.395,109.598 42.961,109.548 43.271 C 109.497 43.580,109.398 43.833,109.326 43.833 C 109.255 43.833,109.145 44.133,109.083 44.500 C 109.021 44.867,108.902 45.167,108.819 45.167 C 108.735 45.167,108.667 45.354,108.667 45.583 C 108.667 45.813,108.596 46.000,108.510 46.000 C 108.424 46.000,108.303 46.337,108.241 46.750 C 108.179 47.163,108.069 47.500,107.996 47.500 C 107.923 47.500,107.812 47.800,107.750 48.167 C 107.688 48.533,107.569 48.833,107.485 48.833 C 107.402 48.833,107.333 49.021,107.333 49.250 C 107.333 49.479,107.258 49.667,107.167 49.667 C 107.075 49.667,107.000 49.835,106.999 50.042 C 106.998 50.248,106.889 50.626,106.755 50.882 C 106.622 51.138,106.464 51.607,106.404 51.924 C 106.345 52.241,106.230 52.500,106.148 52.500 C 106.067 52.500,106.000 52.688,106.000 52.917 C 106.000 53.146,105.925 53.333,105.833 53.333 C 105.742 53.333,105.666 53.502,105.666 53.708 C 105.665 53.915,105.552 54.300,105.414 54.564 C 105.276 54.828,105.117 55.334,105.060 55.689 C 105.004 56.043,104.892 56.333,104.812 56.333 C 104.732 56.333,104.667 56.521,104.667 56.750 C 104.667 56.979,104.593 57.167,104.502 57.167 C 104.411 57.167,104.289 57.467,104.231 57.833 C 104.172 58.200,104.059 58.500,103.979 58.500 C 103.899 58.500,103.827 58.669,103.820 58.875 C 103.811 59.126,103.775 59.167,103.712 59.000 C 103.660 58.862,103.568 58.712,103.508 58.667 C 103.356 58.550,102.333 57.004,102.333 56.891 C 102.333 56.840,102.146 56.575,101.917 56.303 C 101.688 56.031,101.500 55.701,101.500 55.571 C 101.500 55.440,101.442 55.333,101.371 55.333 C 101.300 55.333,101.101 55.071,100.928 54.750 C 100.756 54.429,100.551 54.167,100.474 54.167 C 100.397 54.167,100.333 54.060,100.333 53.929 C 100.333 53.798,100.240 53.590,100.125 53.468 C 100.010 53.345,99.774 52.965,99.599 52.622 C 99.424 52.280,99.218 52.000,99.140 52.000 C 99.063 52.000,99.000 51.893,99.000 51.762 C 99.000 51.631,98.906 51.422,98.792 51.297 C 98.488 50.965,98.171 50.459,98.059 50.125 C 98.005 49.965,97.895 49.833,97.814 49.833 C 97.733 49.833,97.667 49.718,97.667 49.578 C 97.667 49.438,97.561 49.282,97.432 49.233 C 97.302 49.183,97.151 48.960,97.095 48.738 C 97.039 48.515,96.920 48.333,96.830 48.333 C 96.740 48.333,96.667 48.221,96.667 48.083 C 96.667 47.946,96.592 47.833,96.500 47.833 C 96.408 47.833,96.333 47.726,96.333 47.595 C 96.333 47.464,96.231 47.255,96.105 47.129 C 95.980 47.004,95.825 46.736,95.761 46.534 C 95.697 46.332,95.574 46.167,95.489 46.167 C 95.403 46.167,95.333 46.054,95.333 45.917 C 95.333 45.779,95.263 45.667,95.178 45.667 C 95.092 45.667,94.971 45.504,94.908 45.304 C 94.785 44.920,94.642 44.714,94.042 44.060 C 93.835 43.835,93.667 43.591,93.667 43.518 C 93.667 43.444,93.510 43.204,93.319 42.984 C 93.128 42.764,92.809 42.371,92.611 42.111 C 92.412 41.851,92.025 41.419,91.750 41.151 C 91.060 40.477,90.980 40.397,90.446 39.831 C 90.186 39.557,89.884 39.333,89.774 39.333 C 89.664 39.333,89.467 39.186,89.338 39.006 C 89.208 38.826,88.891 38.633,88.634 38.576 C 88.025 38.442,88.039 38.221,88.665 38.084 C 88.939 38.024,89.206 37.905,89.258 37.821 C 89.310 37.736,89.499 37.667,89.677 37.667 C 89.854 37.667,90.000 37.598,90.000 37.513 C 90.000 37.429,90.225 37.310,90.500 37.250 C 90.775 37.190,91.000 37.071,91.000 36.987 C 91.000 36.902,91.139 36.833,91.309 36.833 C 91.479 36.833,91.820 36.646,92.068 36.417 C 92.315 36.188,92.583 36.000,92.663 36.000 C 92.744 36.000,92.909 35.906,93.030 35.792 C 93.151 35.677,93.592 35.325,94.010 35.010 C 94.428 34.694,95.028 34.094,95.343 33.676 C 95.659 33.259,96.010 32.818,96.125 32.696 C 96.240 32.575,96.333 32.410,96.333 32.330 C 96.333 32.250,96.521 31.982,96.750 31.734 C 96.979 31.487,97.167 31.146,97.167 30.976 C 97.167 30.806,97.241 30.667,97.331 30.667 C 97.422 30.667,97.544 30.367,97.603 30.000 C 97.661 29.633,97.775 29.333,97.855 29.333 C 97.935 29.333,98.000 29.198,98.000 29.033 C 98.000 28.868,98.076 28.657,98.170 28.564 C 98.263 28.471,98.386 27.781,98.444 27.030 C 98.502 26.280,98.613 25.667,98.691 25.667 C 98.769 25.667,98.833 25.029,98.833 24.250 C 98.833 23.471,98.769 22.833,98.691 22.833 C 98.613 22.833,98.505 22.148,98.451 21.309 C 98.396 20.471,98.273 19.706,98.176 19.609 C 98.079 19.513,98.000 19.298,98.000 19.133 C 98.000 18.968,97.925 18.833,97.833 18.833 C 97.742 18.833,97.667 18.679,97.667 18.491 C 97.667 18.137,97.012 16.792,96.792 16.694 C 96.723 16.664,96.667 16.567,96.667 16.479 C 96.667 16.304,96.490 16.075,95.779 15.328 C 95.520 15.056,95.244 14.833,95.165 14.833 C 95.087 14.833,94.980 14.702,94.928 14.542 C 94.876 14.381,94.552 14.063,94.209 13.835 C 93.865 13.606,93.546 13.381,93.500 13.335 C 93.180 13.009,91.443 12.167,91.092 12.167 C 90.950 12.167,90.833 12.092,90.833 12.000 C 90.833 11.908,90.650 11.833,90.427 11.833 C 90.203 11.833,89.976 11.763,89.923 11.676 C 89.869 11.590,89.471 11.467,89.038 11.403 C 88.605 11.339,88.209 11.224,88.159 11.147 C 88.109 11.070,87.415 10.957,86.617 10.896 C 85.819 10.834,85.167 10.720,85.167 10.642 C 85.167 10.564,80.029 10.500,73.750 10.500 L 62.333 10.500 62.333 26.000 M202.333 20.000 L 202.333 29.500 208.167 29.500 L 214.000 29.500 214.000 20.000 L 214.000 10.500 208.167 10.500 L 202.333 10.500 202.333 20.000 M228.583 10.724 C 228.297 11.086,228.006 11.568,227.837 11.958 C 227.748 12.165,227.607 12.333,227.524 12.333 C 227.440 12.333,227.328 12.465,227.274 12.625 C 227.162 12.959,226.846 13.465,226.542 13.797 C 226.427 13.922,226.333 14.103,226.333 14.201 C 226.333 14.298,226.202 14.500,226.042 14.649 C 225.708 14.960,225.405 15.416,225.170 15.958 C 225.081 16.165,224.940 16.333,224.857 16.333 C 224.774 16.333,224.661 16.465,224.608 16.625 C 224.496 16.959,224.179 17.465,223.875 17.797 C 223.760 17.922,223.667 18.131,223.667 18.262 C 223.667 18.393,223.603 18.500,223.526 18.500 C 223.449 18.500,223.244 18.762,223.072 19.083 C 222.899 19.404,222.700 19.667,222.629 19.667 C 222.558 19.667,222.500 19.768,222.500 19.891 C 222.500 20.014,222.313 20.333,222.084 20.599 C 221.854 20.865,221.667 21.179,221.667 21.297 C 221.667 21.414,221.561 21.551,221.432 21.601 C 221.302 21.650,221.151 21.873,221.095 22.095 C 221.039 22.318,220.920 22.500,220.830 22.500 C 220.740 22.500,220.667 22.613,220.667 22.750 C 220.667 22.887,220.593 23.000,220.503 23.000 C 220.413 23.000,220.293 23.188,220.235 23.417 C 220.178 23.646,220.069 23.833,219.993 23.833 C 219.918 23.833,219.802 24.002,219.737 24.208 C 219.672 24.415,219.480 24.681,219.309 24.801 C 219.139 24.921,219.000 25.130,219.000 25.265 C 219.000 25.400,218.894 25.551,218.765 25.601 C 218.636 25.650,218.484 25.873,218.429 26.095 C 218.373 26.318,218.253 26.500,218.163 26.500 C 218.074 26.500,218.000 26.613,218.000 26.750 C 218.000 26.887,217.930 27.000,217.845 27.000 C 217.759 27.000,217.637 27.165,217.573 27.367 C 217.508 27.569,217.353 27.837,217.228 27.962 C 217.103 28.088,217.000 28.298,217.000 28.429 C 217.000 28.560,216.932 28.667,216.848 28.667 C 216.765 28.667,216.378 29.173,215.990 29.792 C 215.601 30.410,215.225 30.955,215.155 31.002 C 215.084 31.048,214.975 31.292,214.912 31.543 C 214.849 31.795,214.736 32.000,214.662 32.000 C 214.587 32.000,214.477 32.225,214.417 32.500 C 214.356 32.775,214.257 33.000,214.195 33.000 C 214.007 33.000,214.112 37.386,214.312 37.886 C 214.415 38.144,214.500 38.425,214.500 38.511 C 214.500 38.597,214.567 38.667,214.649 38.667 C 214.730 38.667,214.844 38.854,214.902 39.083 C 214.959 39.313,215.080 39.500,215.170 39.500 C 215.260 39.500,215.333 39.606,215.333 39.736 C 215.333 39.866,215.390 39.997,215.458 40.028 C 215.527 40.058,215.956 40.646,216.412 41.333 C 216.868 42.021,217.290 42.621,217.348 42.667 C 217.407 42.712,217.508 42.919,217.572 43.125 C 217.636 43.331,217.759 43.500,217.845 43.500 C 217.930 43.500,218.000 43.606,218.000 43.736 C 218.000 43.866,218.058 43.997,218.128 44.028 C 218.198 44.058,218.506 44.477,218.812 44.958 C 219.118 45.440,219.427 45.833,219.498 45.833 C 219.569 45.833,219.669 45.991,219.719 46.183 C 219.770 46.376,219.883 46.489,219.971 46.435 C 220.058 46.381,220.179 46.598,220.239 46.918 C 220.299 47.238,220.420 47.500,220.508 47.500 C 220.595 47.500,220.667 47.606,220.667 47.736 C 220.667 47.866,220.724 47.997,220.795 48.028 C 220.865 48.058,221.173 48.477,221.479 48.958 C 221.785 49.440,222.102 49.833,222.184 49.833 C 222.266 49.833,222.333 49.940,222.333 50.071 C 222.333 50.202,222.436 50.412,222.561 50.538 C 222.687 50.663,222.842 50.931,222.906 51.133 C 222.970 51.335,223.092 51.500,223.178 51.500 C 223.263 51.500,223.333 51.612,223.333 51.750 C 223.333 51.887,223.391 52.000,223.462 52.000 C 223.533 52.000,223.725 52.250,223.890 52.556 C 224.055 52.861,224.362 53.298,224.574 53.526 C 224.786 53.754,225.011 54.104,225.074 54.304 C 225.137 54.503,225.259 54.667,225.345 54.667 C 225.430 54.667,225.500 54.774,225.500 54.905 C 225.500 55.036,225.599 55.242,225.719 55.363 C 225.840 55.484,226.202 55.997,226.526 56.503 C 226.849 57.009,227.228 57.537,227.368 57.677 C 227.508 57.818,227.675 58.097,227.739 58.299 C 227.803 58.501,227.926 58.667,228.011 58.667 C 228.097 58.667,228.167 58.768,228.167 58.891 C 228.167 59.015,228.324 59.296,228.516 59.516 C 228.708 59.736,228.972 60.123,229.104 60.375 L 229.342 60.833 236.754 60.833 C 241.149 60.833,244.167 60.771,244.167 60.680 C 244.167 60.446,243.600 59.502,243.458 59.501 C 243.390 59.500,243.333 59.422,243.333 59.326 C 243.333 59.230,243.146 58.950,242.917 58.703 C 242.688 58.456,242.500 58.157,242.500 58.038 C 242.500 57.920,242.387 57.780,242.250 57.727 C 242.112 57.674,242.000 57.559,242.000 57.470 C 242.000 57.382,241.906 57.205,241.792 57.077 C 241.295 56.523,241.167 56.337,241.167 56.168 C 241.167 56.070,241.054 55.946,240.917 55.894 C 240.779 55.841,240.667 55.725,240.667 55.637 C 240.667 55.549,240.573 55.372,240.458 55.244 C 239.986 54.718,239.833 54.507,239.831 54.382 C 239.829 54.309,239.605 53.987,239.332 53.667 C 239.060 53.346,238.761 52.993,238.668 52.882 C 238.576 52.771,238.500 52.602,238.500 52.506 C 238.500 52.410,238.313 52.168,238.083 51.969 C 237.854 51.770,237.667 51.505,237.667 51.381 C 237.667 51.258,237.554 51.113,237.417 51.060 C 237.279 51.008,237.167 50.863,237.167 50.740 C 237.167 50.616,236.979 50.328,236.750 50.098 C 236.521 49.869,236.333 49.601,236.333 49.502 C 236.333 49.404,236.221 49.280,236.083 49.227 C 235.946 49.174,235.833 49.030,235.833 48.906 C 235.833 48.783,235.646 48.494,235.417 48.265 C 235.188 48.036,235.000 47.805,235.000 47.751 C 235.000 47.608,234.294 46.625,233.982 46.334 C 233.835 46.196,233.663 45.922,233.601 45.724 C 233.538 45.526,233.378 45.322,233.244 45.271 C 233.110 45.219,233.000 45.079,233.000 44.959 C 233.000 44.839,232.850 44.632,232.667 44.500 C 232.483 44.368,232.333 44.163,232.333 44.045 C 232.333 43.927,232.183 43.702,232.000 43.545 C 231.817 43.388,231.667 43.164,231.667 43.048 C 231.667 42.931,231.517 42.742,231.333 42.628 C 231.150 42.513,231.000 42.341,231.000 42.244 C 231.000 42.046,230.605 41.486,230.042 40.885 C 229.835 40.665,229.667 40.419,229.667 40.338 C 229.667 40.257,229.572 40.091,229.456 39.970 C 229.340 39.849,229.104 39.525,228.930 39.250 C 228.756 38.975,228.514 38.690,228.390 38.617 C 228.267 38.543,228.167 38.375,228.167 38.242 C 228.167 38.109,228.109 38.000,228.038 38.000 C 227.967 38.000,227.768 37.737,227.595 37.417 C 227.422 37.096,227.215 36.833,227.135 36.833 C 227.055 36.833,226.941 36.702,226.882 36.542 C 226.774 36.247,226.087 35.264,225.715 34.870 C 225.470 34.610,225.607 34.211,226.117 33.701 C 226.328 33.491,226.500 33.217,226.500 33.094 C 226.500 32.970,226.612 32.826,226.750 32.773 C 226.887 32.720,227.000 32.576,227.000 32.452 C 227.000 32.328,227.188 32.064,227.417 31.864 C 227.646 31.665,227.833 31.395,227.833 31.265 C 227.833 31.135,227.890 31.003,227.960 30.972 C 228.126 30.899,229.167 29.567,229.167 29.427 C 229.167 29.368,229.354 29.117,229.583 28.869 C 229.813 28.622,230.000 28.326,230.000 28.210 C 230.000 28.095,230.069 28.000,230.153 28.000 C 230.237 28.000,230.478 27.719,230.689 27.375 C 230.899 27.031,231.149 26.666,231.244 26.564 C 231.777 25.990,232.167 25.480,232.167 25.358 C 232.167 25.281,232.321 25.037,232.510 24.817 C 232.699 24.597,232.999 24.247,233.177 24.040 C 233.355 23.833,233.500 23.606,233.500 23.535 C 233.500 23.396,234.016 22.708,234.625 22.033 C 234.831 21.805,235.000 21.533,235.000 21.429 C 235.000 21.325,235.150 21.132,235.333 21.000 C 235.517 20.868,235.667 20.675,235.667 20.572 C 235.667 20.469,235.817 20.249,236.000 20.083 C 236.183 19.917,236.333 19.715,236.333 19.633 C 236.333 19.552,236.521 19.297,236.750 19.068 C 236.979 18.839,237.167 18.542,237.167 18.409 C 237.167 18.276,237.244 18.167,237.339 18.167 C 237.433 18.167,237.561 18.036,237.622 17.875 C 237.684 17.715,237.906 17.412,238.117 17.201 C 238.328 16.991,238.500 16.747,238.500 16.659 C 238.500 16.572,238.631 16.363,238.792 16.196 C 239.290 15.676,239.833 14.935,239.833 14.775 C 239.833 14.690,240.021 14.448,240.250 14.235 C 240.479 14.023,240.667 13.805,240.667 13.751 C 240.667 13.697,240.967 13.246,241.333 12.750 C 241.700 12.254,242.000 11.803,242.000 11.749 C 242.000 11.695,242.194 11.471,242.432 11.251 C 242.669 11.030,242.815 10.772,242.755 10.675 C 242.585 10.400,228.802 10.447,228.583 10.724 M268.333 35.667 L 268.333 60.833 273.684 60.833 L 279.034 60.833 278.975 41.958 C 278.943 31.577,278.941 23.346,278.970 23.667 C 279.000 23.988,279.093 24.321,279.179 24.408 C 279.264 24.495,279.333 24.814,279.333 25.117 C 279.333 25.419,279.400 25.667,279.481 25.667 C 279.562 25.667,279.680 26.079,279.743 26.583 C 279.806 27.087,279.927 27.500,280.012 27.500 C 280.097 27.500,280.167 27.669,280.168 27.875 C 280.168 28.081,280.281 28.465,280.418 28.727 C 280.555 28.990,280.667 29.309,280.667 29.436 C 280.667 29.563,280.733 29.667,280.814 29.667 C 280.896 29.667,281.013 30.002,281.074 30.413 C 281.136 30.823,281.248 31.197,281.324 31.244 C 281.400 31.291,281.513 31.602,281.576 31.935 C 281.638 32.268,281.753 32.663,281.831 32.812 C 282.212 33.543,282.500 34.335,282.500 34.650 C 282.500 34.843,282.566 35.000,282.648 35.000 C 282.729 35.000,282.846 35.337,282.908 35.750 C 282.970 36.162,283.091 36.500,283.177 36.500 C 283.263 36.500,283.333 36.688,283.333 36.917 C 283.333 37.146,283.408 37.333,283.500 37.333 C 283.592 37.333,283.667 37.502,283.668 37.708 C 283.668 37.915,283.778 38.293,283.911 38.549 C 284.045 38.805,284.203 39.274,284.263 39.592 C 284.322 39.910,284.438 40.211,284.519 40.262 C 284.600 40.312,284.667 40.536,284.667 40.760 C 284.667 40.984,284.733 41.167,284.815 41.167 C 284.896 41.167,285.012 41.426,285.071 41.743 C 285.130 42.060,285.288 42.529,285.422 42.785 C 285.555 43.041,285.665 43.419,285.666 43.625 C 285.666 43.831,285.742 44.000,285.833 44.000 C 285.925 44.000,286.000 44.188,286.000 44.417 C 286.000 44.646,286.065 44.833,286.145 44.833 C 286.225 44.833,286.341 45.148,286.403 45.533 C 286.464 45.918,286.571 46.312,286.639 46.408 C 286.707 46.505,286.904 47.015,287.075 47.542 C 287.247 48.069,287.443 48.500,287.511 48.500 C 287.580 48.500,287.687 48.875,287.750 49.333 C 287.813 49.792,287.933 50.167,288.016 50.167 C 288.099 50.167,288.167 50.324,288.167 50.516 C 288.167 50.831,288.455 51.623,288.836 52.354 C 288.914 52.504,289.028 52.897,289.090 53.229 C 289.153 53.562,289.261 53.833,289.331 53.833 C 289.400 53.833,289.506 54.137,289.565 54.507 C 289.669 55.154,289.725 55.314,290.129 56.104 C 290.229 56.299,290.362 56.731,290.424 57.063 C 290.486 57.395,290.595 57.667,290.666 57.667 C 290.737 57.667,290.846 58.004,290.908 58.417 C 290.970 58.829,291.091 59.167,291.177 59.167 C 291.263 59.167,291.333 59.354,291.333 59.583 C 291.333 59.813,291.408 60.000,291.500 60.000 C 291.592 60.000,291.667 60.188,291.667 60.417 L 291.667 60.833 296.551 60.833 L 301.436 60.833 301.728 60.125 C 301.888 59.735,302.085 59.295,302.165 59.146 C 302.245 58.996,302.362 58.602,302.424 58.269 C 302.487 57.936,302.600 57.625,302.676 57.578 C 302.752 57.531,302.864 57.156,302.926 56.746 C 302.987 56.336,303.104 56.000,303.186 56.000 C 303.267 56.000,303.333 55.813,303.333 55.583 C 303.333 55.354,303.400 55.167,303.481 55.167 C 303.562 55.167,303.679 54.829,303.741 54.417 C 303.803 54.004,303.917 53.667,303.995 53.667 C 304.072 53.667,304.187 53.292,304.250 52.833 C 304.313 52.375,304.433 52.000,304.516 52.000 C 304.599 52.000,304.667 51.813,304.667 51.583 C 304.667 51.354,304.735 51.167,304.819 51.167 C 304.902 51.167,305.021 50.867,305.083 50.501 C 305.145 50.135,305.256 49.798,305.329 49.753 C 305.402 49.707,305.513 49.398,305.576 49.065 C 305.638 48.732,305.759 48.318,305.845 48.146 C 305.930 47.974,306.074 47.687,306.164 47.507 C 306.253 47.328,306.376 46.878,306.435 46.507 C 306.494 46.137,306.603 45.833,306.678 45.833 C 306.752 45.833,306.864 45.496,306.925 45.083 C 306.987 44.671,307.104 44.333,307.186 44.333 C 307.267 44.333,307.333 44.146,307.333 43.917 C 307.333 43.688,307.400 43.500,307.481 43.500 C 307.562 43.500,307.679 43.164,307.741 42.754 C 307.802 42.344,307.915 41.969,307.991 41.922 C 308.067 41.875,308.180 41.564,308.243 41.231 C 308.305 40.898,308.420 40.504,308.497 40.354 C 308.878 39.623,309.167 38.831,309.167 38.516 C 309.167 38.324,309.232 38.167,309.312 38.167 C 309.392 38.167,309.506 37.863,309.565 37.493 C 309.624 37.122,309.747 36.672,309.836 36.493 C 309.926 36.313,310.074 36.020,310.164 35.841 C 310.253 35.661,310.376 35.211,310.435 34.841 C 310.494 34.470,310.600 34.167,310.669 34.167 C 310.739 34.167,310.846 33.829,310.908 33.417 C 310.970 33.004,311.091 32.667,311.177 32.667 C 311.263 32.667,311.333 32.479,311.333 32.250 C 311.333 32.021,311.396 31.833,311.472 31.833 C 311.548 31.833,311.695 31.515,311.799 31.125 C 311.903 30.735,312.083 30.060,312.199 29.625 C 312.314 29.190,312.467 28.833,312.538 28.833 C 312.609 28.833,312.667 28.692,312.667 28.519 C 312.667 28.346,312.779 27.990,312.916 27.727 C 313.053 27.465,313.165 27.086,313.166 26.885 C 313.166 26.684,313.233 26.479,313.314 26.429 C 313.395 26.379,313.513 25.925,313.576 25.421 C 313.638 24.918,313.760 24.462,313.845 24.409 C 313.930 24.357,314.000 24.098,314.000 23.833 C 314.000 23.569,314.075 23.307,314.167 23.250 C 314.274 23.184,314.333 23.832,314.333 25.073 C 314.333 26.247,314.268 27.000,314.167 27.000 C 314.058 27.000,314.000 29.806,314.000 35.083 L 314.000 43.167 319.833 43.167 L 325.667 43.167 325.667 26.832 L 325.667 10.497 317.375 10.540 L 309.083 10.583 309.030 10.958 C 309.001 11.165,308.907 11.333,308.822 11.333 C 308.736 11.333,308.667 11.516,308.667 11.740 C 308.667 11.964,308.598 12.189,308.515 12.241 C 308.431 12.293,308.312 12.635,308.250 13.001 C 308.188 13.367,308.076 13.667,308.001 13.667 C 307.926 13.667,307.813 14.042,307.750 14.500 C 307.687 14.958,307.567 15.333,307.484 15.333 C 307.401 15.333,307.333 15.521,307.333 15.750 C 307.333 15.979,307.263 16.167,307.177 16.167 C 307.091 16.167,306.970 16.504,306.908 16.917 C 306.846 17.329,306.729 17.667,306.648 17.667 C 306.566 17.667,306.500 17.824,306.500 18.016 C 306.500 18.209,306.396 18.603,306.268 18.891 C 305.807 19.938,305.500 20.847,305.500 21.170 C 305.500 21.352,305.430 21.500,305.344 21.500 C 305.257 21.500,305.136 21.837,305.075 22.250 C 305.013 22.662,304.896 23.000,304.814 23.000 C 304.733 23.000,304.667 23.188,304.667 23.417 C 304.667 23.646,304.599 23.833,304.516 23.833 C 304.433 23.833,304.313 24.208,304.250 24.667 C 304.187 25.125,304.076 25.500,304.003 25.500 C 303.930 25.500,303.819 25.772,303.757 26.104 C 303.695 26.436,303.580 26.830,303.503 26.979 C 303.122 27.710,302.833 28.502,302.833 28.817 C 302.833 29.009,302.768 29.167,302.688 29.167 C 302.608 29.167,302.494 29.470,302.435 29.841 C 302.376 30.211,302.253 30.661,302.164 30.841 C 302.074 31.020,301.926 31.313,301.836 31.493 C 301.747 31.672,301.624 32.122,301.565 32.493 C 301.506 32.863,301.400 33.167,301.331 33.167 C 301.261 33.167,301.154 33.504,301.092 33.917 C 301.030 34.329,300.909 34.667,300.823 34.667 C 300.737 34.667,300.667 34.854,300.667 35.083 C 300.667 35.313,300.598 35.500,300.515 35.500 C 300.431 35.500,300.312 35.800,300.250 36.166 C 300.188 36.532,300.074 36.871,299.995 36.920 C 299.917 36.968,299.802 37.344,299.741 37.754 C 299.679 38.164,299.562 38.500,299.481 38.500 C 299.400 38.500,299.333 38.688,299.333 38.917 C 299.333 39.146,299.263 39.333,299.177 39.333 C 299.091 39.333,298.970 39.671,298.908 40.083 C 298.846 40.496,298.734 40.833,298.660 40.833 C 298.585 40.833,298.472 41.246,298.409 41.750 C 298.346 42.254,298.237 42.667,298.166 42.667 C 298.096 42.667,297.995 42.873,297.943 43.125 C 297.891 43.377,297.751 44.048,297.632 44.617 C 297.368 45.885,297.000 46.375,297.000 45.460 C 297.000 45.126,296.925 44.807,296.833 44.750 C 296.742 44.693,296.667 44.389,296.667 44.073 C 296.667 43.758,296.600 43.500,296.519 43.500 C 296.438 43.500,296.320 43.087,296.257 42.583 C 296.194 42.079,296.083 41.667,296.011 41.667 C 295.938 41.667,295.833 41.331,295.776 40.920 C 295.720 40.510,295.597 40.022,295.504 39.837 C 295.410 39.652,295.263 39.359,295.178 39.187 C 295.093 39.015,294.972 38.602,294.909 38.269 C 294.847 37.936,294.736 37.626,294.662 37.581 C 294.589 37.535,294.478 37.199,294.417 36.833 C 294.355 36.468,294.236 36.126,294.152 36.074 C 294.068 36.023,294.000 35.835,294.000 35.657 C 294.000 35.479,293.932 35.333,293.849 35.333 C 293.766 35.333,293.646 34.958,293.583 34.500 C 293.520 34.042,293.409 33.667,293.337 33.667 C 293.264 33.667,293.154 33.329,293.092 32.917 C 293.030 32.504,292.909 32.167,292.823 32.167 C 292.737 32.167,292.667 31.979,292.667 31.750 C 292.667 31.521,292.600 31.333,292.519 31.333 C 292.438 31.333,292.321 30.998,292.259 30.587 C 292.198 30.177,292.083 29.801,292.005 29.753 C 291.926 29.705,291.812 29.365,291.750 28.999 C 291.688 28.633,291.569 28.333,291.485 28.333 C 291.402 28.333,291.333 28.146,291.333 27.917 C 291.333 27.688,291.263 27.500,291.177 27.500 C 291.091 27.500,290.970 27.162,290.908 26.750 C 290.846 26.337,290.738 26.000,290.667 26.000 C 290.596 26.000,290.487 25.664,290.426 25.254 C 290.364 24.844,290.243 24.464,290.157 24.411 C 290.071 24.357,290.000 24.131,290.000 23.907 C 290.000 23.683,289.930 23.500,289.844 23.500 C 289.757 23.500,289.636 23.162,289.575 22.750 C 289.513 22.337,289.405 22.000,289.336 22.000 C 289.267 22.000,289.169 21.747,289.119 21.437 C 289.069 21.128,288.869 20.547,288.676 20.147 C 288.483 19.746,288.279 19.137,288.224 18.793 C 288.169 18.448,288.063 18.167,287.989 18.167 C 287.915 18.167,287.803 17.829,287.741 17.417 C 287.679 17.004,287.562 16.667,287.481 16.667 C 287.400 16.667,287.333 16.479,287.333 16.250 C 287.333 16.021,287.267 15.833,287.186 15.833 C 287.104 15.833,286.987 15.498,286.926 15.087 C 286.864 14.677,286.750 14.301,286.672 14.253 C 286.593 14.205,286.478 13.866,286.417 13.500 C 286.355 13.134,286.236 12.793,286.152 12.741 C 286.068 12.689,286.000 12.464,286.000 12.240 C 286.000 12.016,285.932 11.833,285.848 11.833 C 285.764 11.833,285.645 11.533,285.583 11.167 L 285.471 10.500 276.902 10.500 L 268.333 10.500 268.333 35.667 M336.667 35.667 L 336.667 60.833 351.833 60.833 L 367.000 60.833 367.000 56.167 L 367.000 51.500 357.667 51.500 L 348.333 51.500 348.333 45.931 C 348.333 42.155,348.390 40.342,348.510 40.302 C 348.743 40.225,348.729 30.774,348.496 30.694 C 348.395 30.660,348.333 28.649,348.333 25.403 L 348.333 20.167 356.792 20.164 C 361.444 20.163,365.419 20.117,365.625 20.062 L 366.000 19.961 366.000 15.231 L 366.000 10.500 351.333 10.500 L 336.667 10.500 336.667 35.667 M82.292 19.625 C 82.330 19.740,82.459 19.833,82.578 19.833 C 83.787 19.833,86.000 22.217,86.000 23.519 C 86.000 23.692,86.075 23.833,86.167 23.833 C 86.267 23.833,86.333 24.524,86.333 25.573 C 86.333 26.554,86.261 27.359,86.167 27.417 C 86.075 27.473,86.000 27.703,86.000 27.927 C 86.000 28.150,85.931 28.333,85.847 28.333 C 85.762 28.333,85.645 28.553,85.586 28.822 C 85.527 29.090,85.371 29.400,85.239 29.509 C 85.108 29.618,85.000 29.773,85.000 29.854 C 85.000 30.209,83.316 31.684,82.625 31.933 C 82.465 31.991,82.333 32.105,82.333 32.186 C 82.333 32.267,82.198 32.333,82.033 32.333 C 81.868 32.333,81.650 32.416,81.549 32.517 C 81.448 32.619,80.718 32.742,79.928 32.791 C 79.137 32.841,78.451 32.945,78.402 33.024 C 78.353 33.102,77.343 33.167,76.157 33.167 L 74.000 33.167 74.000 26.237 L 74.000 19.307 78.111 19.362 C 81.212 19.403,82.240 19.468,82.292 19.625 M74.797 41.956 C 75.282 41.990,76.032 41.990,76.464 41.956 C 76.896 41.921,76.500 41.894,75.583 41.894 C 74.667 41.895,74.313 41.923,74.797 41.956 M202.333 55.500 L 202.333 60.833 208.167 60.833 L 214.000 60.833 214.000 55.500 L 214.000 50.167 208.167 50.167 L 202.333 50.167 202.333 55.500 " stroke="none" fill="#fcfcfc" fill-rule="evenodd"></path><path id="path2" d="M185.417 9.833 C 185.285 10.046,185.837 10.046,186.167 9.833 C 186.362 9.707,186.319 9.671,185.968 9.669 C 185.721 9.668,185.473 9.742,185.417 9.833 M193.611 11.639 C 193.641 11.761,193.667 14.292,193.667 17.264 C 193.667 20.235,193.723 22.667,193.792 22.667 C 193.860 22.667,193.917 20.161,193.917 17.099 C 193.917 14.037,193.867 11.563,193.806 11.600 C 193.745 11.638,193.664 11.612,193.625 11.543 C 193.586 11.473,193.580 11.517,193.611 11.639 M19.553 19.958 C 21.461 19.985,24.536 19.985,26.386 19.958 C 28.236 19.931,26.675 19.909,22.917 19.909 C 19.158 19.909,17.645 19.931,19.553 19.958 M127.911 20.183 C 127.850 20.376,127.867 20.600,127.948 20.681 C 128.034 20.768,128.112 20.621,128.134 20.331 C 128.178 19.752,128.071 19.681,127.911 20.183 M314.077 52.083 C 314.077 56.758,314.099 58.695,314.125 56.387 C 314.151 54.078,314.151 50.253,314.125 47.887 C 314.099 45.520,314.077 47.408,314.077 52.083 M325.577 52.167 C 325.577 56.796,325.599 58.690,325.625 56.375 C 325.651 54.060,325.651 50.273,325.625 47.958 C 325.599 45.644,325.577 47.538,325.577 52.167 M205.386 50.125 C 206.927 50.152,209.402 50.152,210.886 50.125 C 212.369 50.097,211.108 50.075,208.083 50.075 C 205.058 50.075,203.844 50.097,205.386 50.125 " stroke="none" fill="#9cb3f4" fill-rule="evenodd"></path><path id="path3" d="M180.413 14.708 L 180.417 19.750 180.794 19.772 C 181.103 19.790,181.111 19.781,180.838 19.719 C 180.515 19.646,180.503 19.489,180.457 14.655 L 180.409 9.667 180.413 14.708 M183.833 9.817 C 183.833 9.990,185.802 10.253,185.955 10.101 C 186.010 10.045,185.889 10.000,185.685 10.000 C 185.480 10.000,185.360 9.925,185.417 9.833 C 185.480 9.731,185.196 9.667,184.677 9.667 C 184.213 9.667,183.833 9.734,183.833 9.817 M187.000 10.167 C 187.000 10.258,187.188 10.333,187.417 10.333 C 187.646 10.333,187.833 10.258,187.833 10.167 C 187.833 10.075,187.646 10.000,187.417 10.000 C 187.188 10.000,187.000 10.075,187.000 10.167 M189.123 10.282 C 188.692 10.394,188.946 10.669,189.468 10.654 C 189.715 10.646,189.822 10.602,189.707 10.556 C 189.592 10.510,189.540 10.403,189.592 10.319 C 189.690 10.160,189.613 10.154,189.123 10.282 M29.907 15.167 C 29.907 17.779,29.930 18.848,29.958 17.542 C 29.986 16.235,29.986 14.098,29.958 12.792 C 29.930 11.485,29.907 12.554,29.907 15.167 M190.167 10.667 C 190.167 10.758,190.279 10.833,190.417 10.833 C 190.554 10.833,190.667 10.758,190.667 10.667 C 190.667 10.575,190.554 10.500,190.417 10.500 C 190.279 10.500,190.167 10.575,190.167 10.667 M191.333 10.992 C 191.333 11.088,191.543 11.167,191.800 11.167 C 192.057 11.167,192.355 11.255,192.464 11.364 C 192.693 11.593,192.870 11.491,192.699 11.228 C 192.538 10.977,191.333 10.770,191.333 10.992 M193.000 11.411 C 193.000 11.453,193.148 11.568,193.330 11.665 C 193.598 11.809,193.641 11.794,193.562 11.587 C 193.475 11.362,193.000 11.213,193.000 11.411 M193.908 17.000 C 193.908 19.887,193.930 21.069,193.958 19.625 C 193.986 18.181,193.986 15.819,193.958 14.375 C 193.930 12.931,193.908 14.112,193.908 17.000 M129.917 12.667 C 129.853 13.046,129.835 13.391,129.878 13.433 C 129.921 13.476,130.006 13.199,130.067 12.817 C 130.128 12.435,130.145 12.090,130.105 12.050 C 130.066 12.010,129.981 12.288,129.917 12.667 M120.533 12.867 C 120.423 12.977,120.333 13.244,120.333 13.461 C 120.333 13.678,120.257 13.999,120.163 14.174 C 120.025 14.431,120.041 14.474,120.246 14.395 C 120.386 14.342,120.500 14.171,120.500 14.016 C 120.500 13.860,120.567 13.662,120.648 13.575 C 121.104 13.087,120.994 12.406,120.533 12.867 M119.823 14.875 C 119.730 15.237,119.736 15.994,119.830 15.890 C 120.051 15.646,120.184 14.833,120.003 14.833 C 119.910 14.833,119.829 14.852,119.823 14.875 M119.333 16.653 C 119.333 16.828,119.255 16.998,119.160 17.030 C 119.064 17.062,118.955 17.333,118.917 17.633 C 118.876 17.953,118.913 18.137,119.007 18.079 C 119.095 18.025,119.167 17.850,119.167 17.690 C 119.167 17.531,119.233 17.329,119.315 17.242 C 119.566 16.973,119.704 16.333,119.511 16.333 C 119.413 16.333,119.333 16.477,119.333 16.653 M129.107 17.202 C 129.051 17.412,129.012 17.771,129.021 18.000 C 129.030 18.246,129.096 18.113,129.182 17.677 C 129.335 16.897,129.281 16.553,129.107 17.202 M118.404 19.067 C 118.262 19.521,118.271 19.616,118.447 19.549 C 118.568 19.502,118.667 19.366,118.667 19.246 C 118.667 19.126,118.712 18.909,118.768 18.764 C 118.823 18.619,118.804 18.500,118.725 18.500 C 118.646 18.500,118.502 18.755,118.404 19.067 M184.000 19.791 C 184.493 19.859,184.532 19.892,184.250 20.007 C 184.008 20.106,184.137 20.146,184.722 20.155 C 185.296 20.163,185.508 20.107,185.459 19.958 C 185.415 19.826,185.030 19.743,184.403 19.730 C 183.838 19.719,183.666 19.745,184.000 19.791 M186.500 20.167 C 186.500 20.258,186.650 20.333,186.833 20.333 C 187.017 20.333,187.167 20.258,187.167 20.167 C 187.167 20.075,187.017 20.000,186.833 20.000 C 186.650 20.000,186.500 20.075,186.500 20.167 M128.375 20.593 C 128.135 20.853,128.096 21.333,128.314 21.333 C 128.434 21.333,128.703 20.478,128.610 20.392 C 128.595 20.378,128.490 20.469,128.375 20.593 M188.000 20.500 C 188.000 20.668,188.230 20.731,188.637 20.676 C 188.759 20.660,188.977 20.745,189.123 20.865 C 189.345 21.048,189.374 21.043,189.303 20.833 C 189.255 20.693,189.024 20.586,188.775 20.590 C 188.532 20.594,188.333 20.537,188.333 20.465 C 188.333 20.393,188.258 20.333,188.167 20.333 C 188.075 20.333,188.000 20.408,188.000 20.500 M117.896 20.634 C 117.658 20.790,117.462 21.833,117.671 21.833 C 117.760 21.833,117.833 21.661,117.833 21.450 C 117.833 21.239,117.922 20.978,118.031 20.869 C 118.259 20.641,118.158 20.463,117.896 20.634 M190.389 21.238 C 190.389 21.368,190.523 21.465,190.686 21.453 C 190.909 21.436,190.939 21.377,190.804 21.215 C 190.570 20.932,190.389 20.942,190.389 21.238 M127.500 21.843 C 127.500 22.032,127.575 22.140,127.667 22.083 C 127.758 22.027,127.833 21.872,127.833 21.740 C 127.833 21.608,127.758 21.500,127.667 21.500 C 127.575 21.500,127.500 21.654,127.500 21.843 M191.643 21.851 C 191.519 21.930,191.492 22.001,191.583 22.009 C 191.675 22.017,191.958 22.050,192.211 22.084 C 192.465 22.117,192.635 22.084,192.589 22.009 C 192.454 21.790,191.889 21.696,191.643 21.851 M117.071 22.733 C 116.929 23.187,116.937 23.283,117.113 23.215 C 117.234 23.169,117.333 23.033,117.333 22.912 C 117.333 22.792,117.379 22.575,117.434 22.430 C 117.490 22.285,117.471 22.167,117.392 22.167 C 117.313 22.167,117.168 22.422,117.071 22.733 M192.912 22.341 C 192.858 22.428,192.931 22.500,193.073 22.500 C 193.216 22.500,193.333 22.575,193.333 22.667 C 193.333 22.758,193.489 22.833,193.679 22.833 C 193.964 22.833,193.986 22.796,193.804 22.616 C 193.482 22.298,193.026 22.157,192.912 22.341 M127.333 22.750 C 127.211 22.979,127.161 23.216,127.222 23.278 C 127.283 23.339,127.333 23.297,127.333 23.185 C 127.333 23.072,127.408 23.027,127.500 23.083 C 127.595 23.142,127.667 23.002,127.667 22.760 C 127.667 22.228,127.614 22.226,127.333 22.750 M116.333 24.597 C 116.333 24.804,116.288 25.091,116.232 25.236 C 116.177 25.381,116.214 25.500,116.316 25.500 C 116.417 25.500,116.500 25.317,116.500 25.093 C 116.500 24.869,116.575 24.640,116.667 24.583 C 116.916 24.429,116.868 24.222,116.583 24.222 C 116.435 24.222,116.333 24.375,116.333 24.597 M126.622 25.042 C 126.545 25.549,126.590 25.812,126.726 25.653 C 126.873 25.481,126.977 24.500,126.848 24.500 C 126.769 24.500,126.667 24.744,126.622 25.042 M126.167 26.573 C 126.167 26.797,126.092 27.027,126.000 27.083 C 125.908 27.140,125.834 27.313,125.836 27.468 C 125.838 27.691,125.869 27.702,125.982 27.523 C 126.104 27.331,126.140 27.331,126.217 27.523 C 126.266 27.648,126.313 27.512,126.320 27.222 C 126.327 26.932,126.379 26.575,126.434 26.430 C 126.490 26.285,126.453 26.167,126.351 26.167 C 126.250 26.167,126.167 26.350,126.167 26.573 M115.017 28.000 C 115.005 28.229,114.950 28.585,114.895 28.792 C 114.835 29.017,114.869 29.167,114.981 29.167 C 115.083 29.167,115.167 28.984,115.167 28.760 C 115.167 28.536,115.242 28.307,115.333 28.250 C 115.425 28.193,115.499 28.058,115.497 27.948 C 115.496 27.820,115.443 27.832,115.348 27.983 C 115.229 28.169,115.185 28.153,115.120 27.899 C 115.057 27.654,115.034 27.677,115.017 28.000 M202.333 39.833 C 202.333 46.500,202.391 50.000,202.500 50.000 C 202.609 50.000,202.667 46.528,202.667 39.917 L 202.667 29.833 208.167 29.833 L 213.667 29.833 213.667 32.083 C 213.667 33.321,213.731 34.333,213.809 34.333 C 214.059 34.333,214.051 29.968,213.801 29.810 C 213.681 29.734,211.052 29.671,207.958 29.669 L 202.333 29.667 202.333 39.833 M124.833 30.717 C 124.833 30.927,124.745 31.189,124.636 31.297 C 124.407 31.526,124.509 31.704,124.770 31.533 C 125.008 31.377,125.205 30.333,124.996 30.333 C 124.906 30.333,124.833 30.506,124.833 30.717 M348.907 35.333 C 348.907 37.946,348.930 39.015,348.958 37.708 C 348.986 36.402,348.986 34.265,348.958 32.958 C 348.930 31.652,348.907 32.721,348.907 35.333 M364.333 35.323 C 364.333 38.330,364.393 40.000,364.500 40.000 C 364.607 40.000,364.667 38.364,364.667 35.427 C 364.667 32.557,364.605 30.815,364.500 30.750 C 364.390 30.682,364.333 32.248,364.333 35.323 M113.667 31.660 C 113.667 31.847,113.737 32.000,113.823 32.000 C 114.099 32.000,114.139 31.757,113.899 31.535 C 113.706 31.357,113.667 31.378,113.667 31.660 M113.463 32.572 C 113.187 32.951,113.189 32.963,113.505 32.880 C 113.686 32.833,113.833 32.653,113.833 32.481 C 113.833 32.086,113.813 32.091,113.463 32.572 M123.955 33.375 C 123.878 33.882,123.923 34.146,124.059 33.986 C 124.206 33.815,124.310 32.833,124.181 32.833 C 124.102 32.833,124.001 33.077,123.955 33.375 M113.167 33.486 C 113.167 33.662,113.118 33.943,113.059 34.111 C 112.986 34.317,113.006 34.362,113.121 34.250 C 113.371 34.004,113.538 33.167,113.337 33.167 C 113.243 33.167,113.167 33.311,113.167 33.486 M123.500 34.907 C 123.500 35.131,123.425 35.360,123.333 35.417 C 123.242 35.473,123.168 35.646,123.169 35.802 C 123.171 36.024,123.202 36.036,123.316 35.856 C 123.437 35.664,123.474 35.664,123.550 35.856 C 123.608 36.003,123.649 35.965,123.665 35.750 C 123.679 35.567,123.717 35.210,123.750 34.958 C 123.783 34.706,123.741 34.500,123.655 34.500 C 123.570 34.500,123.500 34.683,123.500 34.907 M214.019 35.292 C 214.009 35.773,213.925 36.167,213.833 36.167 C 213.725 36.167,213.667 38.583,213.667 43.083 C 213.667 47.716,213.723 50.000,213.838 50.000 C 213.953 50.000,214.012 47.751,214.016 43.208 C 214.020 39.473,214.062 36.106,214.110 35.727 C 214.159 35.347,214.162 34.897,214.118 34.727 C 214.075 34.556,214.030 34.810,214.019 35.292 M112.667 34.986 C 112.667 35.162,112.604 35.331,112.526 35.361 C 112.156 35.508,112.172 36.495,112.546 36.589 C 113.095 36.726,123.119 36.604,123.264 36.458 C 123.480 36.243,123.187 36.109,122.942 36.312 C 122.491 36.686,112.602 36.488,112.527 36.103 C 112.494 35.931,112.538 35.743,112.625 35.687 C 112.858 35.533,113.038 34.667,112.837 34.667 C 112.743 34.667,112.667 34.810,112.667 34.986 M62.444 41.778 C 62.257 41.965,62.312 60.833,62.500 60.833 C 62.609 60.833,62.667 57.556,62.667 51.333 L 62.667 41.833 68.167 41.833 L 73.667 41.833 73.667 51.333 C 73.667 57.556,73.724 60.833,73.833 60.833 C 74.149 60.833,74.053 41.889,73.736 41.768 C 73.376 41.629,62.583 41.639,62.444 41.778 M319.792 43.458 L 325.333 43.504 325.333 52.197 C 325.333 56.977,325.372 60.850,325.420 60.802 C 325.539 60.683,325.529 43.682,325.410 43.489 C 325.353 43.396,323.079 43.349,319.782 43.373 L 314.250 43.412 319.792 43.458 " stroke="none" fill="#94acf4" fill-rule="evenodd"></path><path id="path4" d="M180.243 14.861 C 180.251 20.568,180.183 20.153,181.083 20.024 L 181.750 19.929 181.083 19.840 L 180.417 19.750 180.326 14.750 L 180.236 9.750 180.243 14.861 M30.039 15.111 C 30.009 18.681,29.950 19.826,29.792 19.890 C 29.628 19.955,29.630 19.977,29.797 19.987 C 30.156 20.009,30.174 19.732,30.125 14.998 L 30.078 10.417 30.039 15.111 M130.258 11.591 C 130.194 12.016,130.176 12.398,130.217 12.440 C 130.259 12.481,130.345 12.168,130.409 11.742 C 130.473 11.317,130.491 10.935,130.449 10.894 C 130.408 10.852,130.321 11.166,130.258 11.591 M129.409 16.409 C 129.345 16.834,129.331 17.220,129.377 17.265 C 129.422 17.311,129.512 17.001,129.576 16.576 C 129.640 16.151,129.654 15.765,129.608 15.719 C 129.563 15.674,129.473 15.984,129.409 16.409 M128.917 19.167 C 128.853 19.546,128.838 19.893,128.884 19.939 C 128.929 19.985,129.019 19.712,129.083 19.333 C 129.147 18.954,129.162 18.607,129.116 18.561 C 129.071 18.515,128.981 18.788,128.917 19.167 M182.764 19.995 C 182.956 20.072,183.368 20.075,183.681 20.002 C 184.196 19.880,184.163 19.867,183.333 19.861 C 182.677 19.856,182.515 19.894,182.764 19.995 M128.576 20.900 C 128.514 21.230,128.396 21.500,128.315 21.500 C 128.233 21.500,128.167 21.650,128.167 21.833 C 128.167 22.017,128.227 22.167,128.302 22.167 C 128.465 22.167,128.907 20.518,128.779 20.390 C 128.729 20.340,128.637 20.569,128.576 20.900 M127.944 20.611 C 127.773 20.783,127.813 21.365,127.989 21.257 C 128.075 21.204,128.134 21.012,128.121 20.830 C 128.092 20.457,128.095 20.460,127.944 20.611 M129.167 25.573 C 129.167 25.706,129.242 25.860,129.333 25.917 C 129.425 25.973,129.500 25.865,129.500 25.677 C 129.500 25.488,129.425 25.333,129.333 25.333 C 129.242 25.333,129.167 25.441,129.167 25.573 M203.833 29.617 C 207.751 29.733,214.000 29.738,214.000 29.625 C 214.000 29.556,211.356 29.516,208.125 29.535 C 204.894 29.554,202.963 29.591,203.833 29.617 M348.713 35.542 L 348.686 40.333 356.583 40.333 C 361.668 40.333,364.517 40.274,364.583 40.167 C 364.651 40.056,362.003 40.000,356.762 40.000 L 348.839 40.000 348.789 35.375 L 348.740 30.750 348.713 35.542 M111.928 36.482 C 111.865 36.584,111.837 36.682,111.865 36.702 C 112.069 36.841,123.334 36.888,123.334 36.750 C 123.334 36.641,121.412 36.600,117.806 36.632 C 113.784 36.667,112.246 36.628,112.160 36.489 C 112.074 36.350,112.010 36.349,111.928 36.482 M69.500 41.672 C 73.487 41.747,77.106 41.880,77.542 41.966 C 77.982 42.054,78.333 42.059,78.333 41.978 C 78.333 41.899,78.333 41.785,78.334 41.726 C 78.334 41.667,74.715 41.600,70.292 41.578 L 62.250 41.536 69.500 41.672 M314.083 51.917 C 314.083 56.729,314.140 60.667,314.208 60.667 C 314.277 60.667,314.333 56.765,314.333 51.996 L 314.333 43.325 320.000 43.371 C 323.117 43.396,325.667 43.360,325.667 43.292 C 325.667 43.223,323.060 43.167,319.875 43.167 L 314.083 43.167 314.083 51.917 " stroke="none" fill="#a8bef5" fill-rule="evenodd"></path></g></svg>